<?xml version="1.0" standalone="no"?>
<!DOCTYPE svg PUBLIC "-//W3C//DTD SVG 20010904//EN"
 "http://www.w3.org/TR/2001/REC-SVG-20010904/DTD/svg10.dtd">
<svg version="1.0" xmlns="http://www.w3.org/2000/svg"
 width="1819.000000pt" height="1819.000000pt" viewBox="0 0 1819.000000 1819.000000"
 preserveAspectRatio="xMidYMid meet">
<metadata>
Created by potrace 1.11, written by Peter Selinger 2001-2013
</metadata>
<g transform="translate(0.000000,1819.000000) scale(0.100000,-0.100000)"
fill="#000000" stroke="none">
<path d="M4250 16132 c-8 -3 -22 -11 -31 -18 -21 -18 -99 -20 -170 -4 -52 12
-60 11 -95 -8 -22 -12 -57 -23 -79 -26 -22 -2 -56 -9 -75 -15 -41 -13 -207 -6
-226 10 -7 6 -25 9 -41 7 -24 -3 -27 -7 -24 -28 11 -65 11 -65 -59 -68 -35 -2
-70 -8 -78 -14 -8 -7 -47 -11 -95 -11 -70 1 -90 6 -132 29 -27 16 -56 34 -63
41 -20 20 -53 16 -59 -7 -3 -12 -14 -20 -28 -20 -27 0 -55 -29 -55 -58 0 -17
-9 -24 -42 -32 -72 -19 -75 -20 -102 -41 -15 -12 -26 -31 -26 -44 0 -13 -9
-49 -21 -80 -21 -57 -46 -81 -103 -100 -31 -10 -49 -50 -29 -64 18 -13 50 -87
47 -108 -4 -25 -42 -91 -65 -114 -9 -9 -36 -19 -59 -23 -57 -9 -70 -21 -70
-65 0 -38 -25 -85 -40 -76 -5 3 -20 3 -33 0 -23 -6 -25 -12 -31 -108 -10 -151
-15 -175 -45 -220 -49 -74 -66 -163 -39 -207 10 -15 9 -22 -6 -39 -10 -11 -30
-21 -45 -23 -23 -3 -26 -7 -23 -38 1 -19 6 -37 10 -40 16 -12 52 -70 52 -85 0
-17 17 -50 41 -77 17 -19 20 -122 4 -148 -5 -8 -10 -43 -12 -79 -7 -133 -13
-159 -45 -186 -23 -20 -28 -30 -22 -47 4 -13 9 -29 10 -37 2 -8 8 -17 14 -21
7 -4 11 -11 11 -16 -2 -12 48 -64 61 -64 33 0 60 -107 33 -130 -8 -7 -14 -28
-13 -48 0 -21 -2 -48 -7 -62 -4 -14 -9 -38 -12 -55 -2 -16 -7 -37 -10 -45 -12
-30 -13 -60 -3 -60 5 0 10 -7 10 -16 0 -8 5 -12 10 -9 6 4 10 -8 10 -29 0 -19
-4 -37 -9 -41 -11 -6 -7 -323 4 -371 6 -27 4 -33 -15 -39 -17 -5 -20 -12 -15
-28 3 -12 7 -26 9 -32 2 -5 8 -23 15 -39 6 -16 9 -36 6 -46 -16 -51 -22 -199
-8 -209 4 -3 9 -13 11 -21 2 -8 8 -16 13 -18 5 -2 9 -11 9 -20 1 -9 8 -35 16
-57 26 -68 27 -115 3 -169 -13 -31 -22 -74 -23 -118 -2 -49 -7 -71 -18 -80
-23 -18 -31 -134 -10 -154 11 -12 13 -25 5 -63 -5 -26 -6 -57 -3 -67 4 -10 8
-58 9 -106 2 -76 -1 -91 -22 -125 -43 -68 -55 -133 -28 -157 9 -8 18 -15 21
-15 28 0 41 -16 37 -47 -3 -19 -11 -41 -17 -50 -18 -21 -23 -72 -26 -267 -1
-93 -4 -171 -7 -173 -3 -3 0 -20 5 -37 6 -18 12 -88 14 -157 2 -69 6 -186 9
-260 11 -263 8 -316 -20 -371 -19 -36 -84 -91 -101 -85 -29 11 4 -43 54 -87
26 -24 28 -43 6 -85 -14 -29 -17 -77 -4 -70 3 2 18 -9 34 -23 27 -25 28 -30
27 -113 -1 -52 3 -86 9 -86 5 0 9 -3 8 -7 -1 -5 2 -18 6 -31 10 -30 -19 -115
-50 -149 -20 -22 -23 -33 -18 -62 4 -20 10 -40 14 -46 4 -5 8 -34 9 -63 1 -29
6 -65 10 -80 4 -15 9 -85 10 -157 1 -71 5 -134 9 -140 15 -24 16 -47 6 -110
-9 -62 -10 -101 0 -140 8 -34 9 -132 2 -144 -3 -4 -8 -36 -11 -72 -8 -88 -12
-97 -43 -101 -24 -3 -27 -7 -24 -38 1 -19 5 -42 9 -50 3 -8 7 -36 8 -62 1 -26
7 -53 12 -60 8 -11 18 -42 26 -78 0 -3 5 -23 9 -45 5 -22 11 -68 12 -102 2
-34 6 -77 10 -96 5 -27 1 -42 -24 -78 -44 -65 -55 -111 -34 -150 9 -18 27 -44
40 -58 29 -31 30 -41 4 -71 -11 -12 -17 -26 -14 -31 2 -5 5 -104 4 -221 0
-191 -2 -218 -19 -252 -11 -20 -18 -47 -15 -59 7 -35 15 -108 18 -162 2 -27 8
-63 15 -79 7 -18 9 -50 5 -85 -3 -31 -1 -68 5 -83 8 -22 6 -32 -14 -60 -14
-18 -29 -43 -34 -55 -13 -28 -6 -222 8 -236 7 -7 11 -50 11 -107 0 -72 4 -106
17 -131 14 -28 18 -67 20 -219 3 -173 1 -187 -18 -213 -18 -25 -18 -29 -4 -43
8 -8 15 -23 15 -32 0 -9 6 -28 13 -42 8 -14 12 -38 10 -54 -2 -16 2 -47 10
-70 17 -54 15 -143 -5 -187 -9 -18 -18 -52 -19 -74 -2 -22 -12 -49 -21 -59
-20 -22 -21 -28 -17 -101 1 -27 2 -69 2 -92 -1 -24 3 -43 8 -43 13 0 11 -67
-3 -90 -10 -16 -9 -28 3 -62 9 -24 13 -52 9 -63 -4 -11 -5 -70 -3 -132 3 -91
0 -118 -12 -137 -15 -22 -15 -27 1 -58 9 -18 20 -35 23 -38 3 -3 7 -25 8 -50
1 -25 2 -62 4 -82 1 -21 -4 -51 -11 -68 -9 -21 -11 -64 -6 -152 9 -182 9 -180
1 -226 -5 -29 -4 -42 4 -42 6 0 10 -3 10 -8 -5 -28 4 -61 20 -79 11 -12 18
-23 15 -26 -3 -3 7 -13 21 -24 15 -10 44 -34 64 -53 34 -32 37 -39 34 -85 -6
-95 -5 -183 2 -204 5 -17 14 -21 48 -21 61 0 83 9 98 36 20 38 39 25 61 -43
11 -35 23 -61 27 -59 3 2 16 -7 29 -20 12 -13 20 -24 16 -24 -4 0 1 -9 11 -20
19 -21 71 -50 97 -54 14 -2 66 -34 85 -52 6 -6 29 -11 50 -10 23 1 45 -5 56
-15 11 -10 45 -18 95 -22 l77 -7 33 36 c45 48 75 58 98 33 9 -10 23 -19 30
-19 7 0 14 -5 16 -10 2 -6 12 -12 23 -14 57 -12 74 -20 84 -43 7 -14 15 -23
18 -19 3 3 11 2 18 -4 11 -9 54 -3 56 9 0 3 2 21 4 39 2 19 6 37 10 40 10 10
138 2 152 -9 7 -7 30 -9 55 -5 24 3 62 7 86 9 30 1 48 8 60 23 22 28 54 44 86
44 14 0 28 4 31 10 6 9 43 -5 55 -22 3 -4 22 -8 43 -10 20 -1 37 -6 37 -10 0
-4 8 -8 19 -8 19 0 101 81 101 101 0 7 10 9 28 4 15 -4 50 -7 77 -8 57 0 70
-6 133 -64 25 -24 49 -43 52 -43 4 0 17 -9 30 -20 30 -26 53 -13 69 40 11 36
16 41 34 36 12 -3 25 -6 28 -6 4 0 12 -13 19 -30 11 -26 18 -30 50 -30 21 0
43 7 50 15 7 8 18 15 25 15 8 0 27 11 43 25 37 31 53 31 80 2 28 -29 68 -33
82 -7 15 28 44 41 103 45 29 2 93 7 142 11 184 16 254 11 276 -19 3 -4 32 -9
64 -12 48 -3 63 -9 89 -35 18 -16 35 -27 39 -24 4 4 7 2 7 -5 0 -7 10 -12 23
-11 12 1 24 1 27 0 35 -13 49 -7 74 30 14 22 30 40 34 41 63 9 74 0 77 -56 1
-23 23 -22 40 2 10 14 17 14 46 4 19 -7 50 -15 69 -18 19 -2 50 -8 69 -13 27
-7 44 -5 75 9 71 33 144 61 160 61 8 0 29 12 47 27 31 27 65 40 53 22 -7 -12
52 -12 92 0 21 6 43 4 70 -5 21 -7 50 -11 64 -9 43 7 204 7 230 0 42 -13 109
-17 128 -10 27 12 45 17 67 16 119 -1 147 0 163 10 14 9 25 6 53 -13 27 -18
48 -24 85 -23 27 1 60 -4 74 -10 41 -19 144 -13 169 9 19 17 28 18 93 9 40 -6
98 -8 128 -6 77 7 110 7 146 -1 24 -5 36 -2 49 11 11 11 32 17 54 17 44 -2
128 -29 148 -49 17 -18 43 -19 78 -3 26 11 33 32 15 43 -5 3 -10 10 -10 16 0
5 27 -4 60 -21 66 -33 124 -39 169 -15 26 13 30 13 45 -4 10 -11 25 -18 34
-16 9 1 24 -3 32 -10 8 -7 26 -16 40 -20 14 -4 27 -11 30 -16 3 -4 17 -9 30
-11 14 -2 31 -7 39 -12 11 -7 12 -6 6 5 -7 12 -6 12 7 1 10 -8 19 -9 22 -3 4
5 44 9 91 9 99 -1 121 11 131 73 9 56 21 61 90 43 56 -14 79 -26 79 -42 1 -16
57 -93 72 -99 9 -4 19 1 25 11 32 58 78 79 128 59 14 -6 28 -9 33 -6 4 2 10
-9 13 -26 8 -37 41 -42 68 -12 15 17 22 17 77 6 l61 -13 35 31 c34 30 39 31
129 32 104 2 112 -3 121 -57 3 -18 7 -35 9 -37 9 -9 26 18 31 50 3 19 12 47
20 62 l15 29 23 -22 c21 -20 31 -22 80 -16 39 4 73 1 111 -10 62 -18 84 -14
84 15 0 17 18 31 41 31 5 0 9 -6 9 -14 0 -12 13 -14 63 -10 80 6 186 -13 214
-39 19 -17 29 -19 70 -12 75 12 311 16 318 5 18 -29 73 7 93 61 10 25 12 26
107 24 84 -1 99 -3 111 -20 20 -27 75 -95 91 -111 7 -7 13 -20 13 -28 0 -9 5
-16 11 -16 5 0 8 -4 5 -9 -3 -5 1 -15 10 -22 28 -23 63 -21 97 5 32 24 94 42
132 38 144 -17 148 -15 170 52 8 25 15 31 40 32 17 0 35 -3 41 -8 6 -4 20 -9
31 -11 12 -2 28 -9 37 -16 9 -7 16 -10 16 -7 0 4 27 -20 59 -53 59 -60 100
-77 116 -51 5 8 11 7 20 0 8 -6 29 -13 47 -15 18 -2 36 -4 39 -4 3 -1 16 -10
29 -21 12 -11 27 -17 31 -14 5 3 9 1 9 -5 0 -5 20 -8 44 -7 24 1 52 -3 62 -11
26 -19 64 -17 64 5 1 49 14 100 32 125 24 34 71 59 101 53 12 -2 38 1 57 8 19
6 54 9 78 5 24 -3 45 -2 47 2 3 4 18 9 35 11 32 5 63 -18 59 -44 -3 -26 1 -38
15 -38 8 0 23 -13 33 -30 9 -16 21 -30 25 -30 4 0 8 -9 8 -20 0 -30 55 -28 74
3 19 31 62 133 78 187 l13 45 88 2 c48 0 87 -2 87 -5 0 -4 16 -8 36 -9 37 -2
67 -19 58 -34 -3 -5 0 -9 5 -9 6 0 11 6 11 13 0 8 4 7 10 -3 5 -8 10 -10 10
-4 0 24 46 31 130 19 30 -5 89 -9 130 -10 71 -1 76 -2 88 -28 9 -18 21 -27 38
-27 13 0 24 4 24 10 0 5 14 25 31 45 32 36 59 46 59 20 0 -8 10 -20 22 -26 18
-10 24 -8 40 11 11 13 18 33 17 44 -4 54 5 58 46 20 20 -18 34 -24 51 -20 14
4 37 0 55 -9 33 -18 35 -17 94 36 34 30 64 37 218 45 71 4 116 3 130 -4 12 -6
29 -13 37 -14 8 -2 17 -6 20 -10 3 -3 19 -8 36 -11 28 -4 38 2 88 54 63 64 79
69 138 41 20 -10 58 -17 85 -17 46 0 48 1 51 30 5 40 84 116 144 139 64 23
127 87 120 121 -6 33 15 33 28 0 8 -21 16 -25 49 -25 50 0 62 19 57 88 l-4 50
32 -5 c30 -5 37 -1 68 40 33 44 34 46 33 141 -1 53 1 96 5 96 14 0 28 61 26
115 -3 63 -12 95 -27 95 -5 0 -9 18 -9 41 0 57 -26 128 -60 167 -28 32 -29 37
-26 118 l3 84 47 37 c39 32 46 42 41 63 -3 14 -6 31 -7 38 -1 6 -5 12 -10 12
-4 0 -8 9 -8 20 0 11 -6 19 -13 17 -6 -1 -11 4 -10 10 2 7 -2 12 -9 10 -20 -4
-39 46 -35 95 2 27 0 48 -5 48 -4 0 -8 7 -8 16 0 8 -6 22 -14 30 -10 10 -14
30 -11 62 2 26 -2 63 -9 82 -13 37 -11 176 3 195 14 19 4 198 -14 245 -23 61
-25 111 -6 134 9 11 10 16 4 12 -16 -9 -16 -3 -15 208 1 88 5 162 10 165 5 3
10 37 11 75 1 38 6 78 10 90 5 11 7 28 6 36 -7 41 -7 58 0 88 4 17 11 32 15
32 13 0 12 297 -1 321 -6 12 -12 60 -14 108 -2 47 -9 129 -15 181 -6 52 -8
129 -5 171 3 44 2 86 -4 103 -6 15 -12 89 -13 164 -1 92 -6 146 -15 164 -7 15
-13 30 -13 33 -1 3 -3 12 -7 21 -3 9 0 41 7 72 7 30 13 96 13 145 1 90 1 90
37 126 35 35 37 39 39 115 1 43 -2 83 -8 90 -9 11 -38 106 -48 157 -3 16 3 39
16 60 12 19 21 42 21 53 0 10 9 34 21 52 11 19 18 34 15 34 -4 0 0 12 7 28 17
32 9 69 -22 108 -18 23 -21 39 -19 103 1 42 1 150 1 241 -1 91 -2 172 -2 180
0 8 -1 33 -2 56 -1 23 3 50 9 60 6 11 10 56 9 101 0 72 3 87 25 120 43 62 44
148 6 273 -23 75 -27 286 -5 308 12 11 13 22 5 49 -10 35 -7 125 5 173 4 13 2
65 -4 115 -6 49 -12 104 -14 121 -2 17 3 44 10 60 20 42 36 215 22 233 -18 21
-23 75 -13 133 6 32 4 39 -19 54 -22 14 -25 22 -19 48 3 17 9 35 12 41 4 5 8
27 9 47 2 21 12 53 23 70 11 18 20 49 20 69 0 20 5 51 11 69 8 21 8 34 2 39
-9 6 -45 68 -42 73 0 2 -2 19 -6 38 -3 19 -7 55 -9 80 -1 25 -6 52 -11 59 -6
10 -4 12 4 6 9 -5 10 -3 2 11 -5 11 -12 31 -15 46 -4 15 -13 33 -21 42 -21 21
-38 66 -39 103 -1 18 -9 42 -19 53 -18 21 -15 60 4 60 15 0 40 65 35 92 -1 13
1 37 7 53 5 17 10 107 11 202 2 110 6 176 14 185 6 7 35 22 64 32 29 10 61 27
71 39 17 19 17 21 -5 44 -13 14 -30 22 -40 20 -16 -5 -18 3 -19 69 -2 107 -3
112 -16 125 -16 16 -17 95 -2 104 10 7 29 46 35 72 1 6 -13 26 -32 44 -36 35
-40 54 -20 109 9 25 10 45 3 69 -7 28 -5 41 9 65 11 20 17 47 15 82 -1 35 3
56 14 67 21 21 20 23 -24 73 l-39 44 4 103 c2 56 4 119 5 140 2 32 -4 43 -34
71 -32 29 -36 38 -38 90 -1 31 -6 59 -11 62 -4 3 -8 21 -8 40 0 26 3 33 13 28
9 -6 9 -4 -1 8 -16 19 -19 82 -5 100 6 7 11 45 12 83 1 39 9 90 18 115 22 64
27 109 13 125 -15 18 -16 206 -1 234 6 11 11 30 11 43 1 13 9 39 19 57 15 28
16 41 8 64 -5 17 -7 61 -3 106 12 146 18 256 16 306 -2 61 -3 106 -2 188 2
108 -1 131 -21 149 -10 9 -23 18 -29 20 -5 2 -11 32 -13 66 -2 37 -10 73 -20
88 -9 14 -18 44 -19 67 -2 23 -8 53 -14 67 -56 136 -72 156 -138 176 -45 13
-84 42 -84 62 0 15 -119 140 -139 147 -10 3 -31 -1 -46 -9 -29 -15 -29 -15
-42 22 -8 20 -15 43 -17 51 -3 16 -114 22 -119 6 -5 -13 -45 8 -80 41 -14 13
-30 24 -34 24 -5 0 -30 23 -57 52 l-48 52 -40 -43 c-33 -35 -46 -42 -81 -44
-24 -1 -51 -10 -61 -19 -26 -23 -38 -23 -59 3 -14 16 -25 19 -50 14 -18 -4
-47 -6 -64 -5 -34 2 -146 2 -185 0 -13 0 -42 2 -66 6 -32 5 -55 1 -94 -16 -42
-18 -57 -20 -92 -12 -22 5 -92 10 -155 11 -102 2 -119 -1 -165 -23 -69 -33
-287 -64 -321 -46 -23 12 -131 8 -168 -6 -8 -3 -30 4 -48 15 -35 22 -85 29
-74 11 3 -5 -1 -10 -9 -10 -9 0 -16 -4 -16 -10 0 -5 -7 -10 -15 -10 -8 0 -15
9 -15 20 0 11 -1 20 -3 20 -1 0 -25 8 -53 18 -27 11 -59 17 -69 16 -11 -2 -55
-6 -99 -9 -60 -5 -83 -11 -100 -27 -60 -58 -96 -59 -156 -8 -19 17 -39 30 -43
30 -5 0 -6 4 -2 9 13 23 -38 -1 -80 -36 -25 -20 -55 -38 -68 -39 -12 -1 -34
-4 -49 -7 -17 -4 -33 1 -47 14 -14 13 -35 19 -66 19 -28 0 -45 4 -45 12 0 6
-3 9 -6 6 -3 -4 -20 -2 -37 3 -28 8 -35 6 -53 -17 -19 -23 -30 -27 -95 -30
-41 -2 -84 -4 -96 -5 -26 -1 -120 45 -143 71 -16 17 -56 20 -81 5 -31 -19
-139 -109 -139 -116 0 -9 -57 18 -65 31 -3 4 -19 6 -35 4 -22 -4 -30 -1 -30
10 0 30 -7 31 -233 22 -59 -2 -92 0 -100 8 -18 18 -57 12 -104 -15 l-42 -24
-28 28 c-22 20 -39 27 -70 27 -33 0 -41 -3 -39 -17 1 -13 -8 -19 -28 -21 -17
-2 -26 0 -22 6 8 13 -69 8 -105 -6 -14 -5 -40 -9 -58 -7 -19 1 -55 -5 -81 -15
-43 -16 -49 -16 -76 -1 -16 8 -56 16 -91 16 -35 1 -66 5 -70 9 -4 4 -12 26
-18 49 -15 61 -37 55 -50 -13 -8 -40 -15 -54 -26 -51 -8 2 -27 5 -44 5 -41 3
-75 15 -75 28 0 5 -15 25 -33 43 -24 24 -37 31 -48 24 -22 -12 -78 30 -86 64
-7 33 -29 36 -37 5 -8 -33 -93 -118 -116 -118 -12 0 -31 7 -43 15 -16 10 -32
12 -59 6 -21 -5 -38 -7 -38 -5 0 3 -10 -1 -22 -8 -13 -7 -52 -14 -88 -14 -103
-3 -224 -14 -233 -23 -9 -9 -77 10 -77 21 0 8 -46 -5 -86 -24 -42 -21 -255
-17 -306 6 -25 10 -38 23 -38 35 0 33 -11 51 -31 51 -10 0 -19 4 -19 10 0 13
-73 5 -98 -11 -11 -7 -33 -33 -49 -57 -33 -52 -71 -72 -142 -72 -39 0 -55 5
-74 24 -54 54 -95 59 -153 19 -25 -17 -55 -27 -83 -29 -24 -2 -48 -8 -52 -15
-8 -14 -96 -14 -134 1 -16 6 -37 20 -47 32 -10 12 -18 18 -18 14 0 -3 -14 1
-31 9 -37 20 -53 15 -71 -22 -13 -27 -16 -28 -83 -27 -58 1 -72 -2 -83 -17
-17 -24 -42 -24 -42 -1 0 16 -9 19 -62 21 -41 1 -69 8 -80 18 -18 16 -27 22
-87 56 -31 18 -32 18 -49 -2 -9 -12 -35 -24 -57 -29 -22 -4 -40 -12 -40 -17
-1 -26 -18 -36 -52 -30 -19 3 -40 8 -45 11 -6 4 -51 9 -101 11 -63 4 -100 11
-124 24 -18 10 -40 19 -48 19 -8 0 -15 4 -15 9 0 6 -9 8 -19 6 -100 -19 -110
-18 -138 12 -42 43 -89 43 -131 -1 -33 -35 -36 -35 -139 -38 -29 0 -64 10 -90
28 -17 11 -33 13 -51 8 -15 -5 -76 -10 -137 -11 -208 -5 -310 -13 -338 -24
-15 -7 -41 -8 -60 -4 -17 3 -45 9 -62 12 -38 6 -67 22 -61 32 3 4 -37 7 -88 6
-70 0 -99 -5 -119 -18 -14 -9 -37 -17 -49 -17 -13 0 -38 -9 -56 -20 -47 -29
-133 -40 -207 -26 -11 2 -36 -2 -55 -9 -19 -8 -58 -16 -86 -19 -47 -4 -52 -3
-64 20 -8 13 -25 27 -39 30 -14 3 -33 8 -41 10 -8 3 -16 4 -17 2 -1 -2 -13 8
-27 21 -14 14 -29 22 -32 18 -4 -3 -24 3 -45 14 -36 18 -46 33 -53 85 -4 29
-40 29 -59 0 -10 -14 -24 -23 -34 -21 -10 2 -18 4 -18 5 0 8 -93 7 -107 -1
-12 -6 -27 -3 -53 11 -20 11 -47 20 -60 20 -14 0 -25 4 -25 8 0 12 -61 30 -80
24z m760 -317 c0 -19 -8 -19 -26 -1 -22 22 -18 39 6 26 11 -6 20 -17 20 -25z
m-1583 -432 c3 -7 -7 -11 -26 -11 -31 1 -38 8 -24 22 11 10 46 3 50 -11z m333
-27 c0 -15 58 -28 66 -14 3 4 18 8 33 8 30 0 68 -41 56 -60 -18 -28 -15 -64 6
-86 18 -19 33 -24 75 -24 61 0 77 17 72 73 l-3 32 58 -1 c43 -1 64 -7 80 -22
32 -29 65 -37 85 -19 26 23 144 33 179 14 28 -14 87 -36 110 -41 7 -1 16 -5
19 -9 4 -4 18 -7 31 -7 13 0 23 -6 23 -13 0 -32 35 -47 102 -45 64 3 65 3 106
-39 35 -38 46 -43 84 -43 35 0 51 6 78 30 48 43 104 43 128 -2 24 -44 84 -100
95 -89 5 5 12 29 14 53 3 24 9 47 13 51 4 5 34 10 66 12 33 1 70 6 84 9 14 4
46 3 71 -2 31 -6 53 -5 65 2 11 5 67 10 127 11 98 0 108 -2 114 -20 4 -11 7
-23 8 -26 0 -4 12 -21 28 -40 15 -18 27 -36 27 -40 0 -19 38 -13 65 10 17 14
30 28 31 31 0 3 6 15 13 28 14 26 38 29 43 5 2 -12 16 -17 57 -19 30 -1 63 2
73 7 17 9 54 -4 69 -24 15 -21 66 -17 104 8 33 23 44 25 84 19 45 -8 75 -8
371 -4 161 3 271 -5 312 -21 22 -9 32 -7 60 13 18 12 37 29 41 36 10 15 74 6
97 -13 31 -26 60 -27 107 -5 33 15 52 19 72 13 14 -5 33 -8 41 -7 8 1 32 2 52
3 47 1 61 32 29 62 -12 11 -21 24 -21 29 0 17 28 11 42 -9 9 -13 22 -17 47
-15 19 3 37 0 40 -5 4 -5 13 -11 21 -13 8 -2 20 -8 27 -14 8 -8 68 -11 180
-10 165 2 168 1 192 -22 22 -22 30 -24 84 -18 56 5 59 4 54 -15 -3 -13 3 -28
19 -44 19 -19 29 -22 52 -16 45 13 72 34 72 56 0 27 18 45 47 45 32 0 113 -39
110 -53 -1 -7 4 -11 11 -9 8 1 11 -2 7 -7 -8 -14 54 -71 76 -71 34 0 96 31
108 54 7 13 14 38 15 55 1 18 9 37 17 42 15 10 128 7 146 -4 5 -3 30 4 54 16
60 31 129 26 129 -8 0 -8 5 -15 10 -15 6 0 10 -7 10 -16 0 -8 4 -13 8 -10 4 2
8 -4 9 -15 1 -10 8 -27 15 -38 13 -18 16 -16 48 34 42 65 56 69 193 60 172
-13 203 -8 199 29 -1 14 2 27 8 27 5 1 16 2 23 3 22 4 61 -21 100 -63 20 -22
37 -44 37 -49 0 -19 85 -7 106 14 20 20 30 21 166 19 125 -3 149 -6 178 -23
18 -12 37 -19 42 -16 5 3 7 2 6 -3 -2 -4 1 -9 5 -10 4 -1 16 -12 26 -24 21
-26 67 -32 98 -13 26 16 50 18 116 11 26 -3 47 -3 47 1 0 10 249 4 280 -7 32
-11 125 4 158 25 18 12 30 13 51 6 31 -11 137 -7 174 7 36 13 157 14 173 0 13
-11 185 -16 202 -6 4 3 32 1 62 -4 74 -12 114 2 145 51 29 46 51 59 102 64 41
3 63 -12 63 -42 0 -28 45 -46 65 -26 8 9 15 13 15 11 0 -2 19 0 43 5 87 18
126 20 139 6 8 -8 14 -45 15 -96 1 -46 3 -86 6 -88 3 -3 28 -7 55 -10 49 -5
52 -3 89 37 69 77 72 79 108 79 19 0 37 -1 39 -2 2 -2 14 6 26 17 26 23 115
23 161 0 16 -9 29 -13 29 -9 0 4 12 -7 28 -25 28 -32 75 -51 127 -51 41 0 55
16 55 61 0 55 48 101 104 99 69 -3 86 -1 86 12 0 6 -3 9 -6 5 -6 -6 -34 16
-34 27 0 3 17 6 38 6 32 0 45 -7 76 -40 20 -22 42 -38 47 -34 5 3 9 2 8 -3 -6
-35 18 -43 65 -22 33 16 116 -8 116 -32 0 -10 14 -23 30 -31 17 -7 30 -16 30
-20 0 -15 28 4 33 22 3 11 18 25 34 32 15 7 32 19 37 27 5 9 23 28 40 43 29
27 33 28 131 25 55 -2 106 -7 113 -11 6 -4 27 -9 46 -10 19 -2 39 -7 46 -11 7
-4 32 -7 56 -7 32 1 44 -3 44 -13 0 -10 10 -15 29 -15 34 0 91 19 91 31 0 4
17 11 37 15 31 6 39 4 51 -15 9 -13 25 -21 43 -21 16 0 29 -5 29 -11 0 -7 35
-10 105 -8 68 2 109 0 113 -7 4 -6 18 -17 31 -24 22 -11 27 -10 52 21 16 19
29 28 29 22 0 -7 9 -13 21 -13 26 0 52 -14 82 -44 14 -13 47 -32 75 -42 l52
-19 -7 -40 c-7 -52 -7 -46 1 -78 5 -17 3 -39 -5 -60 -8 -17 -14 -35 -14 -39 0
-3 -3 -10 -7 -14 -12 -12 -9 -49 5 -63 10 -11 9 -12 -2 -6 -10 6 -12 4 -5 -6
4 -8 10 -23 11 -33 4 -24 23 -47 33 -41 4 3 6 -9 5 -25 -1 -17 2 -30 7 -30 21
0 34 -28 33 -73 -1 -27 5 -60 12 -74 16 -32 16 -53 -1 -75 -8 -11 -12 -40 -10
-80 1 -35 -2 -65 -6 -68 -5 -3 -10 -44 -11 -92 -1 -47 -5 -92 -10 -99 -4 -7
-4 -20 1 -30 7 -12 1 -27 -21 -57 -28 -39 -29 -44 -34 -178 -3 -77 -7 -174
-10 -217 -4 -74 -3 -79 25 -111 l29 -33 -3 -122 c-2 -67 -8 -127 -14 -134 -5
-6 -10 -26 -10 -44 0 -17 -8 -43 -17 -57 -10 -14 -14 -26 -11 -26 4 0 4 -6 -1
-12 -12 -19 -11 -31 3 -55 40 -65 51 -90 48 -108 -12 -89 -18 -111 -30 -131
-16 -24 -13 -116 4 -137 5 -7 8 -25 7 -42 -2 -16 -6 -70 -9 -119 -3 -49 -7
-91 -10 -94 -3 -2 1 -17 9 -33 17 -32 20 -92 6 -118 -6 -10 -11 -48 -12 -85
-1 -37 -6 -69 -11 -72 -10 -7 -11 -64 0 -64 4 0 19 -18 32 -40 14 -22 28 -40
31 -40 8 0 16 -30 24 -90 4 -32 1 -55 -9 -75 -14 -26 -14 -31 0 -46 11 -12 13
-25 8 -41 -11 -34 -14 -71 -6 -82 9 -15 9 -376 0 -376 -5 0 -8 -20 -8 -44 0
-35 -4 -45 -19 -49 -28 -7 -67 -75 -74 -127 -4 -28 -14 -51 -27 -62 -13 -10
-22 -32 -24 -54 -4 -31 1 -41 30 -68 19 -17 34 -39 34 -48 0 -10 3 -18 8 -18
8 0 32 -48 32 -63 0 -5 8 -17 18 -26 21 -20 28 -134 10 -168 -8 -17 -8 -29 0
-47 10 -22 11 -154 2 -181 -2 -5 0 -40 4 -77 5 -41 4 -79 -2 -100 -6 -18 -13
-46 -15 -63 -3 -16 -13 -52 -22 -79 -13 -39 -16 -71 -11 -165 10 -224 17 -285
36 -318 16 -28 18 -54 17 -218 -1 -152 2 -188 14 -196 8 -5 11 -9 6 -9 -4 0 3
-21 16 -47 21 -43 24 -63 26 -179 0 -73 -4 -156 -10 -185 -6 -30 -13 -81 -16
-114 -3 -33 -12 -71 -21 -85 -9 -14 -15 -45 -15 -74 1 -69 -19 -103 -73 -127
-57 -24 -69 -24 -86 0 -8 11 -27 21 -43 23 -24 2 -30 9 -36 35 -15 76 -53 100
-160 102 -31 1 -38 6 -55 38 -11 21 -29 40 -39 42 -10 2 -31 16 -47 33 -15 16
-30 28 -35 27 -4 -1 -12 7 -18 17 -5 11 -13 21 -16 24 -3 3 -16 26 -29 53 -25
50 -41 58 -62 29 -32 -44 -63 -35 -74 23 -6 32 -43 75 -65 75 -5 0 -8 4 -5 9
4 5 -2 8 -11 7 -10 -2 -31 1 -48 6 -44 14 -61 12 -118 -16 -52 -27 -78 -32
-91 -19 -4 5 -16 9 -27 9 -10 1 -23 2 -29 3 -5 0 -10 23 -10 50 0 64 -12 73
-99 69 -59 -2 -74 1 -100 20 -24 17 -38 21 -68 16 -21 -3 -41 -8 -45 -11 -5
-2 -8 1 -8 6 0 6 -5 10 -12 9 -7 -2 -12 2 -13 7 0 6 -3 15 -7 21 -4 6 -4 24 1
40 16 58 -25 95 -113 100 -58 4 -131 29 -132 45 -3 40 -5 46 -19 46 -8 0 -15
-4 -15 -8 0 -10 -47 -17 -61 -8 -10 6 -10 11 0 23 7 9 17 13 22 10 12 -7 7 17
-6 31 -22 22 -106 53 -155 57 -29 3 -38 9 -53 41 -18 35 -21 37 -65 37 -36 0
-50 5 -60 20 -18 29 -88 28 -119 -2 -31 -29 -55 -34 -108 -23 -42 9 -50 20
-46 61 2 31 -3 43 -40 80 -24 24 -49 44 -57 44 -7 0 -10 5 -7 10 3 6 2 10 -2
10 -5 0 -13 10 -18 22 -6 13 -23 27 -40 33 -16 5 -32 12 -35 15 -11 11 -86 48
-110 53 -14 4 -41 28 -63 57 -20 27 -42 50 -48 50 -6 0 -27 -16 -46 -35 -48
-48 -67 -47 -77 6 -6 35 -17 59 -26 59 -4 0 -13 15 -20 33 -32 83 -47 100 -74
78 -6 -5 -27 -9 -46 -9 -19 0 -47 -2 -63 -5 -32 -7 -57 15 -89 78 -11 22 -28
49 -38 60 -10 11 -20 29 -22 40 -4 27 -29 36 -50 18 -12 -10 -22 -12 -35 -5
-10 6 -22 11 -28 11 -26 3 -41 13 -50 33 -9 21 -17 23 -80 24 -38 1 -71 6 -72
11 -3 7 -19 7 -48 1 -24 -5 -59 -8 -77 -6 l-33 3 2 65 c1 36 3 79 6 97 6 37
-14 47 -57 29 -41 -16 -102 -161 -105 -247 -2 -59 -16 -107 -28 -95 -3 3 -12
-1 -20 -9 -25 -25 -62 -29 -83 -10 -11 10 -20 24 -20 31 0 7 -4 14 -9 16 -5 2
-11 10 -13 18 -2 8 -8 20 -15 27 -10 12 -10 28 2 108 2 17 7 59 11 95 3 36 14
82 25 103 11 22 19 58 19 88 0 48 -3 54 -52 105 -29 30 -59 54 -66 54 -7 0
-31 9 -52 20 -26 13 -56 20 -87 18 -26 -1 -48 3 -50 9 -2 6 -13 21 -24 34 -10
12 -19 25 -19 29 0 4 -20 18 -45 31 -25 13 -45 29 -45 35 0 7 -14 26 -30 44
-16 18 -30 37 -30 44 0 6 -9 25 -19 43 -19 31 -22 31 -77 27 -49 -3 -61 -1
-81 18 -13 12 -23 26 -23 31 0 5 -13 22 -30 37 -16 15 -30 35 -30 42 0 8 -9
23 -20 33 -11 10 -20 23 -20 30 0 16 -39 48 -77 64 -18 7 -31 16 -28 20 2 4
-2 19 -10 34 -15 29 -13 31 67 85 64 44 118 44 148 2 12 -17 23 -36 24 -43 2
-7 6 -29 11 -49 7 -36 34 -54 36 -25 2 23 -3 52 -12 63 -5 6 -8 52 -8 102 0
69 4 96 16 107 9 9 17 42 20 78 3 34 12 69 20 78 17 20 23 67 11 91 -5 11 -4
20 5 25 48 30 77 126 42 140 -13 4 -15 17 -9 69 4 44 2 69 -6 79 -16 20 -4 88
26 147 13 27 25 49 27 51 3 5 -35 42 -44 42 -4 0 -11 3 -15 8 -4 4 -13 7 -21
7 -24 0 -55 42 -59 79 -2 20 -4 83 -5 140 -1 78 2 105 12 112 8 5 10 9 5 9 -5
0 -3 7 4 15 14 17 7 31 -32 64 -23 20 -28 32 -28 72 0 26 -4 51 -10 54 -17 10
-11 75 8 103 26 37 39 81 36 120 -2 24 3 35 18 43 17 9 20 18 15 57 -3 26 -10
48 -16 50 -6 2 -11 18 -11 36 0 18 -9 52 -21 75 -23 48 -19 77 9 66 31 -12 36
-10 40 14 2 14 15 40 30 58 33 44 32 93 -3 135 -30 36 -28 54 6 50 13 -2 57
-6 97 -9 70 -5 72 -4 72 17 0 21 1 22 23 6 38 -28 46 -29 72 -7 21 16 32 18
51 10 14 -5 39 -7 55 -4 28 5 96 -18 109 -36 13 -19 65 -37 96 -34 37 3 78 43
89 85 5 19 1 30 -17 45 -23 20 -23 21 -6 39 15 16 21 17 47 6 17 -6 32 -10 33
-9 8 9 57 -49 60 -71 5 -44 16 -49 138 -68 29 -5 40 -10 32 -15 -7 -5 -9 -14
-5 -20 4 -7 8 -17 9 -24 1 -6 18 -28 38 -48 l36 -36 -6 -69 c-7 -67 6 -130 26
-130 13 0 4 -91 -13 -140 -9 -25 -16 -65 -15 -90 1 -57 -14 -95 -44 -111 -30
-16 -38 -30 -28 -48 9 -17 10 -23 10 -44 0 -8 11 -19 24 -25 18 -8 27 -7 38 5
14 13 16 13 21 0 3 -9 -1 -21 -9 -27 -8 -7 -14 -22 -14 -34 0 -25 35 -86 50
-86 16 0 11 -47 -6 -54 -9 -3 -30 -6 -47 -6 -32 0 -60 -12 -57 -23 0 -4 7 -25
15 -47 15 -42 13 -49 -22 -114 -16 -29 -16 -36 -10 -138 4 -53 -2 -81 -17 -79
-20 3 -22 -2 -12 -33 6 -19 13 -33 16 -31 4 2 7 -37 8 -88 0 -50 -3 -94 -9
-97 -5 -4 -9 -17 -10 -31 -2 -46 11 -324 16 -349 2 -14 7 -38 11 -53 4 -18 0
-37 -10 -52 -9 -13 -16 -31 -16 -39 0 -8 -12 -23 -27 -34 -25 -18 -28 -26 -26
-75 2 -39 -2 -58 -12 -67 -20 -16 -19 -53 1 -93 9 -17 19 -46 21 -65 5 -38 27
-85 36 -76 3 3 4 -2 3 -12 -2 -10 2 -38 7 -63 5 -25 9 -81 8 -124 -1 -68 2
-80 22 -97 12 -11 26 -19 30 -19 5 0 16 -8 25 -19 9 -10 30 -27 45 -37 28 -18
32 -43 12 -88 -12 -29 7 -39 43 -22 26 14 41 14 89 5 52 -11 64 -9 118 11 75
29 76 29 97 6 12 -14 25 -17 43 -13 14 4 25 10 25 15 0 12 67 34 79 27 15 -9
24 70 11 94 -10 18 -8 22 19 31 17 6 40 26 52 45 11 19 26 34 33 34 21 0 53
42 80 102 14 31 38 70 54 86 25 25 30 38 28 71 -2 32 3 45 21 61 20 17 22 24
13 41 -15 27 -19 107 -8 144 5 17 11 48 14 70 2 22 11 54 18 70 13 26 13 39 0
94 -8 35 -21 76 -28 90 -16 32 -39 187 -32 220 6 26 22 49 49 69 21 16 22 53
2 91 -8 16 -12 31 -10 33 3 3 -15 24 -40 47 -37 35 -43 45 -35 61 6 11 8 64 5
127 -7 146 -8 153 -17 153 -4 0 -8 9 -8 21 0 14 -4 18 -12 12 -7 -4 -23 -9
-35 -10 -16 -3 -20 1 -18 14 2 10 4 20 4 22 1 2 9 -4 20 -13 18 -16 18 -14 15
91 -2 59 -6 144 -10 187 -4 56 -2 81 6 86 13 8 14 12 8 165 -3 63 0 118 5 130
6 11 9 39 8 63 -2 36 1 44 24 54 14 6 25 14 26 17 0 3 2 24 5 46 3 22 5 59 4
83 0 35 4 44 22 51 43 16 133 32 213 38 48 3 92 12 113 23 33 18 35 18 67 0
24 -13 58 -19 122 -21 l90 -3 29 33 c23 26 37 33 67 33 20 0 43 -7 52 -16 9
-8 32 -18 53 -21 74 -12 84 -16 128 -57 24 -22 44 -37 44 -32 0 5 5 2 10 -6
13 -21 49 -21 61 1 14 26 35 14 53 -32 14 -35 20 -39 50 -39 34 0 43 -9 52
-56 4 -23 34 -84 34 -71 0 4 12 -3 26 -17 25 -22 26 -26 13 -55 -8 -17 -18
-31 -23 -31 -8 0 -4 -59 10 -155 5 -37 3 -42 -21 -55 -14 -8 -33 -28 -41 -46
-19 -40 -8 -61 48 -96 45 -28 48 -34 53 -121 3 -38 7 -73 10 -78 15 -24 12
-49 -9 -68 -23 -22 -26 -71 -4 -71 6 0 7 -13 2 -32 -4 -18 -6 -37 -6 -43 8
-64 10 -210 3 -224 -6 -9 -10 -46 -10 -82 0 -35 0 -90 0 -121 0 -32 0 -66 -1
-75 0 -10 0 -58 1 -108 4 -157 1 -205 -15 -205 -18 0 -24 -20 -27 -85 -2 -27
-9 -68 -16 -89 -7 -21 -15 -51 -18 -65 -5 -27 -50 -71 -73 -71 -7 0 -30 -9
-52 -20 -22 -11 -52 -20 -67 -20 -16 0 -39 -7 -51 -16 -12 -8 -36 -19 -51 -24
-24 -7 -33 -4 -50 16 -11 13 -26 24 -32 24 -15 0 -50 -19 -82 -46 -23 -19 -35
-22 -75 -18 -55 6 -97 24 -132 56 -14 13 -30 24 -36 25 -22 4 -76 -58 -91
-104 -17 -54 -36 -73 -62 -66 -12 3 -29 -7 -48 -27 -28 -30 -30 -37 -27 -101
2 -72 17 -99 64 -114 13 -4 17 -16 16 -55 -1 -32 2 -50 10 -50 23 0 84 -82 85
-114 1 -17 2 -60 3 -95 1 -42 5 -66 14 -68 6 -3 12 -12 12 -21 0 -8 3 -13 6
-9 4 3 12 0 20 -7 13 -13 41 -13 96 0 23 5 29 2 37 -19 5 -13 21 -36 35 -50
14 -15 26 -29 26 -33 0 -3 9 -18 19 -33 31 -43 36 -79 16 -101 -10 -11 -27
-20 -37 -20 -11 0 -17 -4 -14 -8 3 -5 6 -30 7 -56 3 -53 46 -126 75 -126 8 0
12 -4 9 -10 -3 -5 1 -10 9 -10 9 0 15 -6 14 -12 -2 -7 3 -12 10 -10 6 1 11 -2
10 -7 -2 -5 12 -25 30 -45 18 -20 30 -41 27 -46 -3 -5 -1 -18 4 -27 6 -10 11
-12 11 -5 0 6 7 12 16 12 8 0 13 4 10 8 -6 11 101 7 139 -5 17 -5 37 -9 45 -8
8 0 25 -5 38 -11 12 -6 40 -9 61 -7 37 4 55 -6 56 -32 0 -13 155 -7 171 6 6 5
17 29 24 54 17 61 39 78 108 81 56 3 57 3 57 33 0 24 5 33 27 40 20 7 30 20
38 51 11 41 14 44 60 54 30 6 94 108 108 173 11 46 43 98 73 113 23 13 47 59
44 83 -2 9 0 17 3 17 4 0 7 14 8 31 1 17 12 42 26 57 33 37 61 103 67 164 1 3
17 28 37 53 31 41 34 52 29 83 -8 40 -8 43 -2 216 l5 119 -34 33 c-18 19 -40
34 -49 34 -8 0 -15 3 -16 8 -1 4 -3 18 -5 32 -16 91 -19 175 -7 198 7 13 13
32 13 41 0 20 38 83 55 94 8 4 17 22 20 40 4 17 12 38 18 45 6 7 11 78 13 165
1 84 5 162 8 175 4 20 1 22 -41 22 l-45 0 6 33 c3 17 10 64 15 102 4 39 18 87
29 107 17 30 21 52 19 108 -1 38 -5 70 -9 70 -5 0 -8 9 -8 20 0 11 -4 20 -9
20 -18 0 -51 91 -55 150 -3 58 -2 62 26 83 17 12 38 38 48 58 10 19 26 41 34
48 22 19 20 54 -4 69 -26 16 -26 38 0 52 15 8 19 19 17 43 -1 18 -6 35 -12 39
-6 5 -5 8 2 8 9 0 10 7 3 26 -6 14 -10 58 -10 97 0 40 -6 95 -14 122 -7 28
-12 58 -10 68 1 9 -1 17 -5 17 -4 0 -4 24 -1 54 5 47 12 60 47 94 53 51 89 75
102 67 12 -7 18 18 24 92 2 28 15 73 29 100 15 28 24 61 22 80 -2 29 -28 80
-47 94 -5 3 -9 12 -11 20 -5 31 -18 59 -27 59 -5 0 -19 21 -31 48 -26 55 -41
72 -62 72 -9 0 -16 5 -16 11 0 5 -4 8 -10 4 -18 -11 -37 39 -35 90 l3 50 -36
2 c-44 2 -50 12 -44 69 4 44 -11 80 -29 68 -5 -3 -17 -7 -26 -9 -10 -2 -27 -7
-39 -10 -13 -4 -27 0 -37 9 -8 9 -23 16 -32 16 -13 0 -16 5 -10 23 4 12 9 46
10 76 3 46 -1 58 -21 78 -14 13 -21 30 -18 36 4 7 3 9 -1 4 -5 -4 -17 0 -27
10 -27 24 -63 44 -176 94 -56 24 -75 21 -96 -16 -6 -10 -19 -27 -29 -37 -17
-18 -17 -21 -2 -38 13 -14 13 -20 4 -26 -7 -4 -15 -2 -17 4 -2 7 -9 12 -16 12
-17 0 -86 -96 -86 -120 0 -13 -9 -22 -27 -26 -15 -4 -34 -13 -41 -21 -16 -15
-68 -18 -77 -3 -9 14 -51 12 -62 -2 -5 -7 -15 -31 -21 -54 -19 -67 -60 -94
-166 -110 -120 -18 -186 -18 -213 1 -30 21 -90 17 -96 -7 -6 -23 -51 -43 -74
-33 -10 4 -40 9 -68 10 -27 2 -63 7 -79 12 -31 10 -125 -5 -165 -26 -12 -7
-26 -23 -31 -37 -9 -24 -30 -34 -30 -14 0 14 -179 11 -204 -2 -26 -14 -77 -19
-176 -17 -65 1 -79 -4 -91 -36 -7 -16 -14 -32 -15 -34 -2 -1 -20 7 -42 19 -38
21 -39 23 -34 69 l4 48 -46 6 c-25 4 -59 4 -75 1 -16 -4 -31 -1 -35 5 -12 19
-59 11 -121 -19 -33 -17 -74 -30 -92 -30 -17 0 -35 -5 -38 -10 -4 -6 -28 -20
-53 -31 -86 -38 -97 -44 -104 -54 -12 -15 -26 14 -20 39 3 11 11 26 19 31 29
23 20 85 -13 85 -13 0 -54 -72 -54 -95 0 -19 -77 -48 -98 -36 -30 16 -74 81
-77 112 -1 17 -9 37 -18 47 -8 9 -25 38 -38 64 -13 26 -27 47 -31 48 -5 0 -7
3 -5 8 1 4 6 6 11 4 5 -2 3 4 -4 13 -18 22 -39 2 -24 -23 14 -22 7 -42 -15
-42 -21 0 -51 -31 -55 -57 -2 -12 -13 -19 -32 -21 -16 -2 -36 -10 -45 -18 -18
-17 -46 -10 -70 18 -9 10 -21 18 -26 18 -6 0 -18 9 -28 20 -36 40 -134 15
-173 -42 -13 -21 -30 -38 -36 -38 -6 0 -53 -2 -105 -3 -68 -1 -96 -6 -99 -15
-9 -27 -48 -63 -69 -65 -13 -1 -23 -5 -23 -9 0 -22 -56 -5 -91 27 -22 19 -34
35 -28 35 6 0 1 11 -10 25 -12 17 -18 35 -15 52 4 22 3 24 -10 14 -11 -9 -16
-9 -21 0 -11 16 -114 3 -137 -18 -20 -18 -45 -11 -55 14 -6 18 -40 52 -52 54
-3 0 -16 2 -28 5 -12 2 -23 -2 -26 -10 -3 -8 -15 -12 -29 -9 -20 4 -23 11 -25
60 -1 45 -7 61 -26 80 l-24 24 -46 -38 c-39 -32 -46 -44 -46 -75 -1 -27 -6
-38 -20 -43 -32 -10 -81 -61 -81 -85 0 -12 -16 -38 -35 -58 -19 -20 -35 -40
-35 -44 0 -5 -6 -8 -13 -8 -18 0 -47 -34 -79 -90 -42 -74 -53 -80 -153 -83
-83 -3 -90 -1 -109 21 -12 13 -21 27 -22 30 -4 31 -22 74 -47 110 -26 40 -28
49 -22 97 3 31 2 62 -4 72 -5 11 -36 26 -73 37 -35 10 -70 25 -79 32 -8 8 -20
14 -25 14 -5 0 -21 10 -36 23 -21 17 -28 32 -30 64 -1 23 0 44 3 45 2 2 13 8
24 14 13 7 21 24 23 45 2 19 8 39 15 44 33 28 3 58 -32 33 -15 -10 -35 -13
-71 -8 -27 4 -50 3 -50 -2 0 -4 -19 -8 -43 -8 -52 0 -67 -13 -67 -57 0 -40
-24 -55 -83 -51 -34 2 -44 8 -55 31 -7 15 -17 27 -22 27 -5 0 -25 -16 -46 -35
-20 -19 -40 -35 -44 -35 -5 0 -22 -21 -38 -47 -17 -27 -63 -78 -102 -115 -38
-37 -70 -73 -70 -82 0 -19 -29 -48 -41 -41 -5 4 -9 1 -9 -4 0 -6 -3 -10 -7
-10 -34 5 -68 -6 -98 -32 l-35 -31 -141 -1 c-112 -1 -142 2 -149 14 -5 8 -23
15 -40 15 -54 2 -60 4 -60 14 0 6 -10 21 -23 34 -19 19 -32 22 -94 22 -39 -1
-75 -4 -79 -8 -4 -5 -15 -8 -24 -8 -9 0 -35 -18 -59 -40 -23 -22 -48 -40 -54
-41 -7 0 -38 -2 -69 -3 -69 -3 -86 -16 -83 -59 5 -50 -26 -77 -90 -77 -47 0
-54 3 -95 45 -24 25 -40 45 -36 45 5 0 -1 9 -14 20 -22 19 -25 19 -47 4 -14
-8 -33 -24 -44 -35 -24 -24 -34 -24 -70 2 -25 18 -33 19 -62 8 -27 -9 -38 -9
-59 2 -159 87 -193 97 -260 73 -32 -11 -38 -10 -52 5 -9 10 -16 23 -16 29 0
19 -18 23 -57 13 -29 -8 -51 -7 -93 5 -109 32 -115 31 -146 -16 -33 -50 -79
-100 -91 -100 -4 0 -1 5 7 10 13 8 13 10 1 10 -12 0 -12 3 -3 12 7 7 12 17 12
23 0 5 -5 3 -10 -5 -7 -11 -10 0 -10 37 0 28 -4 54 -9 57 -17 11 -76 -15 -103
-45 -27 -29 -31 -30 -91 -26 -51 4 -70 0 -105 -18 -43 -23 -103 -25 -110 -4
-5 12 -42 11 -42 -1 0 -17 -17 -11 -49 19 -17 16 -31 38 -31 50 0 29 -22 32
-209 28 -154 -4 -165 -5 -182 -26 -25 -30 -119 -37 -150 -10 -12 11 -22 19
-23 19 -1 0 -32 3 -69 7 -63 5 -70 4 -95 -19 -25 -23 -34 -24 -134 -24 -60 1
-108 -2 -108 -6 0 -5 -15 -8 -33 -8 -28 0 -37 6 -57 39 -14 22 -35 45 -47 52
-42 23 -68 -3 -123 -120 -6 -14 -11 -18 -60 -40 -50 -23 -69 -121 -29 -154 16
-14 20 -28 18 -73 -2 -52 0 -57 29 -81 18 -13 32 -31 32 -39 0 -8 5 -14 10
-14 6 0 10 -10 10 -21 0 -59 40 -134 72 -134 3 0 50 -44 103 -97 54 -54 101
-95 106 -92 5 3 30 7 56 10 27 3 59 8 73 11 46 11 70 10 81 -4 15 -17 29 -17
51 4 15 13 37 16 105 15 47 0 89 -5 92 -10 13 -20 52 -32 105 -32 30 0 67 -5
81 -12 38 -17 79 4 73 37 -6 32 27 56 59 44 13 -5 71 -8 129 -8 64 1 111 -4
117 -10 17 -17 63 -13 115 9 46 19 61 20 93 6 10 -4 35 -2 58 4 23 6 76 10
119 9 42 0 84 2 93 5 23 10 53 -22 89 -94 18 -36 36 -72 40 -81 9 -17 25 -109
22 -121 -1 -5 2 -8 7 -8 6 0 4 -15 -4 -33 -14 -33 -16 -79 -12 -223 1 -52 7
-77 20 -91 22 -26 22 -26 -14 -63 -27 -26 -30 -36 -25 -65 3 -19 9 -51 12 -71
4 -20 1 -53 -5 -73 -18 -59 -20 -180 -4 -197 8 -8 11 -14 7 -14 -4 0 0 -8 8
-17 21 -24 26 -73 31 -291 5 -179 13 -222 40 -205 5 3 7 2 4 -4 -3 -5 1 -23
10 -39 16 -30 19 -85 11 -185 -5 -70 -43 -133 -93 -154 -19 -8 -50 -21 -69
-29 -27 -12 -35 -22 -44 -59 -9 -35 -17 -46 -37 -51 -13 -3 -29 -15 -35 -26
-6 -11 -20 -20 -32 -20 -24 0 -68 36 -68 57 0 13 -26 17 -85 13 -16 -1 -42
-13 -58 -26 -33 -28 -50 -30 -71 -8 -9 8 -16 12 -16 8 0 -4 -8 0 -17 8 -10 9
-27 14 -38 12 -55 -11 -155 -25 -194 -28 -48 -4 -67 -18 -76 -58 -5 -20 -3
-28 7 -28 7 0 19 -9 25 -19 9 -15 9 -23 -2 -37 -8 -11 -15 -26 -15 -35 0 -8
-15 -30 -34 -48 -37 -36 -38 -63 -2 -93 12 -10 27 -22 34 -28 6 -6 12 -8 12
-4 0 4 11 -3 25 -16 14 -13 25 -32 25 -42 0 -10 5 -18 12 -18 6 0 9 -3 5 -6
-3 -3 5 -18 19 -32 28 -31 29 -40 9 -62 -13 -15 -9 -22 45 -78 59 -61 61 -62
110 -61 28 1 53 -1 57 -4 9 -10 5 -83 -8 -130 -11 -40 2 -87 23 -87 4 0 8 -24
8 -54 0 -47 -4 -57 -28 -78 -16 -13 -34 -33 -40 -43 -28 -51 75 -127 177 -130
67 -2 76 -13 84 -105 5 -64 19 -123 36 -159 11 -23 39 -21 70 5 16 13 36 24
46 24 9 0 25 5 36 10 14 8 19 7 19 -2 0 -9 3 -9 10 2 6 10 10 11 10 3 0 -7 7
-13 15 -13 19 0 55 -20 76 -42 28 -31 35 -20 37 50 0 37 1 78 2 92 1 14 -1 37
-4 51 -9 39 16 57 57 40 18 -7 38 -14 46 -15 7 -1 21 -13 30 -25 l17 -22 24
31 c14 18 29 46 35 64 8 26 16 32 47 36 41 6 108 58 108 84 0 9 12 21 28 28
15 6 55 24 89 39 34 16 66 29 71 29 20 0 62 42 62 62 0 11 14 37 30 58 20 26
35 60 44 106 23 111 24 115 50 139 14 13 31 38 39 57 8 19 33 49 56 67 41 32
41 34 35 81 -5 35 -2 57 10 80 19 38 23 128 8 157 -6 11 -9 23 -7 25 3 3 7 44
9 91 2 48 8 93 13 99 20 25 21 59 4 96 -11 23 -17 56 -15 87 1 28 -3 56 -8 63
-7 7 -8 43 -4 95 6 62 12 86 26 97 28 23 34 133 9 165 -22 27 -24 42 -6 48 9
3 8 12 -5 40 -10 20 -20 65 -24 100 -6 61 -5 66 22 96 17 19 35 30 45 28 13
-4 16 2 12 27 -9 75 -11 160 -3 180 4 11 17 31 28 43 23 27 19 64 -10 84 -63
44 -63 43 -64 126 0 51 -6 92 -17 117 -10 22 -17 64 -17 95 0 31 -1 67 -2 81
-1 14 2 42 6 62 6 32 4 39 -20 55 -55 38 -64 52 -64 96 0 24 7 58 16 75 8 17
18 48 21 69 6 39 37 83 59 83 7 0 19 12 26 27 7 14 20 29 28 33 8 4 25 12 37
18 36 19 53 15 51 -12 -1 -14 -6 -22 -10 -20 -4 3 -8 -1 -8 -9 0 -19 59 -79
70 -72 6 4 10 2 10 -3 0 -20 60 -35 115 -28 60 7 85 1 85 -21 0 -8 5 -11 12
-7 6 4 8 3 5 -3 -9 -14 26 -54 39 -45 16 12 42 66 38 82 -21 90 -21 101 -2
125 14 18 29 25 53 25 19 0 37 5 40 10 3 6 13 10 22 10 9 0 40 12 70 26 40 20
58 35 68 60 8 19 17 34 21 34 4 0 25 -18 46 -40 35 -35 45 -40 84 -40 28 0 43
-4 39 -10 -4 -6 12 -29 34 -52 38 -39 43 -41 74 -31 17 5 59 11 91 12 32 1 69
6 81 11 15 6 27 4 34 -3 7 -7 40 -12 74 -12 51 0 63 -3 72 -20 28 -54 33 -59
47 -49 7 6 36 9 63 8 86 -4 176 7 194 25 26 26 168 11 197 -20 22 -25 65 -24
97 1 14 11 29 20 34 20 22 1 62 50 65 81 2 26 8 35 25 37 26 4 107 -17 99 -25
-8 -8 34 -53 49 -53 7 0 26 -16 44 -35 17 -19 28 -35 25 -35 -4 0 1 -9 11 -20
10 -11 22 -20 28 -20 5 0 25 -7 44 -17 38 -18 49 -39 59 -110 3 -27 9 -52 13
-58 4 -5 7 -14 6 -20 -1 -9 -36 -87 -55 -126 -10 -18 1 -39 21 -43 8 -1 29
-11 46 -22 39 -23 43 -57 11 -91 l-22 -23 21 -21 c19 -19 19 -24 7 -48 -8 -14
-14 -36 -14 -48 0 -15 -8 -23 -29 -28 -35 -7 -57 -31 -63 -67 -6 -34 1 -45 32
-49 65 -10 82 -71 59 -206 -6 -35 -8 -71 -4 -81 16 -35 14 -51 -5 -57 -23 -7
-22 -7 -24 -165 l-1 -114 -42 -9 c-39 -7 -64 -33 -46 -46 4 -3 9 -20 10 -37
l3 -32 -58 1 c-31 0 -73 -1 -92 -2 -19 -1 -47 1 -62 4 -24 7 -27 4 -30 -26
l-3 -34 -17 33 c-15 30 -16 36 -3 49 20 20 5 47 -44 75 -36 21 -71 66 -71 93
0 11 -17 20 -58 30 -6 2 -10 -1 -6 -6 3 -5 -4 -9 -15 -9 -12 0 -21 4 -21 10 0
5 -3 9 -7 9 -26 -4 -63 2 -59 10 3 5 -11 24 -32 43 -20 19 -38 41 -40 49 -2 8
-10 21 -18 30 -8 9 -11 19 -7 22 12 13 -77 7 -110 -6 -18 -8 -45 -25 -62 -39
-30 -26 -36 -28 -112 -48 l-42 -11 16 -33 c14 -31 14 -39 -1 -96 -17 -70 -29
-83 -65 -75 -37 9 -61 -20 -61 -75 0 -42 -3 -49 -27 -59 -16 -6 -38 -13 -51
-16 -34 -6 -92 -45 -127 -84 -16 -19 -38 -43 -47 -54 -10 -11 -18 -33 -18 -49
0 -32 -3 -33 -59 -13 -53 18 -85 7 -100 -36 -9 -25 -8 -34 1 -41 7 -4 10 -8 5
-8 -4 0 -1 -12 6 -27 20 -41 8 -87 -23 -91 -35 -5 -77 -48 -84 -87 -4 -18 -13
-38 -21 -45 -8 -7 -15 -17 -15 -23 0 -16 -51 -67 -67 -67 -19 0 -41 -39 -58
-108 -9 -34 -34 -91 -56 -127 -21 -35 -39 -70 -39 -76 0 -7 -11 -27 -25 -45
-14 -18 -25 -39 -25 -48 0 -8 -11 -28 -25 -44 -14 -17 -25 -36 -25 -44 0 -12
-38 -57 -79 -93 -6 -5 -25 -30 -42 -53 -17 -24 -33 -42 -35 -39 -3 3 -20 1
-37 -5 -18 -5 -41 -11 -52 -12 -33 -3 -56 -21 -58 -45 -1 -13 -16 -34 -34 -48
-26 -20 -33 -32 -33 -61 0 -22 8 -44 19 -56 19 -21 19 -22 1 -46 l-18 -24 -66
34 c-36 18 -66 37 -66 40 0 4 -7 7 -15 7 -17 0 -46 -29 -49 -49 -1 -7 -5 -19
-9 -26 -5 -6 -5 -29 -2 -50 16 -95 19 -140 17 -194 -2 -32 -6 -39 -29 -44 -16
-4 -37 -12 -48 -19 -11 -6 -30 -14 -42 -17 -32 -8 -61 35 -64 96 -3 44 -4 47
-28 44 -22 -3 -29 -13 -47 -63 -12 -33 -32 -77 -44 -98 -17 -29 -21 -48 -17
-84 4 -42 1 -49 -26 -74 -24 -22 -40 -28 -81 -29 -28 0 -62 -1 -76 -2 -14 0
-53 2 -86 6 -59 7 -63 6 -83 -21 -13 -15 -20 -36 -17 -46 3 -13 -8 -31 -33
-56 -20 -20 -48 -53 -61 -74 -12 -21 -32 -47 -43 -58 -22 -20 -62 -25 -72 -9
-20 33 -80 -7 -88 -59 -2 -10 -8 -25 -14 -33 -6 -7 -11 -17 -11 -21 1 -40 -75
-117 -115 -117 -8 0 -22 -9 -32 -20 -12 -13 -31 -20 -56 -20 -21 0 -50 -5 -64
-10 -24 -9 -26 -12 -14 -27 12 -14 12 -16 0 -8 -10 5 -12 4 -7 -3 4 -7 14 -12
22 -12 8 0 14 -10 14 -24 0 -45 -10 -56 -51 -56 -21 0 -39 -4 -39 -10 0 -5
-11 -12 -25 -16 -27 -7 -56 -34 -36 -34 7 0 10 -4 7 -9 -3 -5 1 -14 9 -21 29
-24 11 -70 -27 -70 -9 0 -22 -9 -28 -19 -5 -11 -32 -32 -58 -46 -43 -23 -48
-30 -50 -63 -1 -20 -17 -66 -35 -102 -31 -59 -37 -66 -83 -81 -36 -13 -55 -27
-74 -56 -42 -64 -91 -112 -124 -119 -17 -4 -46 -14 -63 -24 -33 -18 -63 -16
-139 8 -62 20 -121 -31 -126 -107 -1 -29 -10 -51 -30 -73 -23 -26 -28 -41 -28
-85 0 -29 -4 -53 -8 -53 -5 0 -27 -16 -50 -36 -24 -20 -57 -38 -78 -41 -27 -4
-35 -10 -31 -23 4 -14 -4 -17 -56 -17 -60 0 -61 0 -107 -52 -34 -38 -55 -54
-81 -57 -59 -9 -121 -46 -133 -79 -5 -16 -9 -33 -8 -37 1 -4 -7 -12 -18 -18
-11 -6 -30 -29 -41 -52 -12 -23 -46 -68 -76 -99 l-54 -57 -5 -88 c-3 -49 -13
-111 -21 -138 -14 -44 -20 -50 -69 -72 -46 -20 -54 -28 -64 -63 -11 -40 -24
-51 -65 -51 -13 0 -26 -4 -29 -9 -5 -8 -29 -12 -139 -28 -28 -4 -51 1 -83 17
-44 23 -44 23 -45 79 -1 69 -6 101 -20 118 -6 7 -8 13 -3 13 5 0 2 5 -6 10
-10 6 -11 10 -2 10 6 0 11 3 11 8 -1 4 -1 75 0 159 l1 152 35 7 c19 3 38 10
40 14 11 19 -15 94 -39 114 -26 21 -48 91 -42 131 2 11 -7 40 -20 65 -35 66
-32 95 14 119 12 7 20 16 17 20 -13 22 -16 115 -5 137 11 19 11 26 0 39 -8 9
-13 52 -15 115 -2 99 -3 101 -34 131 -34 32 -39 43 -50 119 -7 47 11 100 35
100 21 0 41 110 38 215 -1 55 -3 105 -4 110 -1 6 -2 36 -1 67 l1 57 39 11 c21
5 44 16 50 24 11 14 5 46 -9 46 -4 0 -21 14 -39 30 -24 23 -31 39 -31 68 0 36
3 39 50 59 41 18 50 26 50 47 0 18 8 30 29 41 46 23 49 57 13 155 -9 26 -9 34
5 62 12 25 11 28 -18 52 -29 25 -31 32 -41 132 -10 96 -14 109 -40 136 -15 16
-28 33 -28 38 0 6 -6 10 -14 10 -13 0 -13 4 0 28 7 15 14 37 14 49 0 12 5 25
11 29 8 5 10 34 6 95 -5 72 -3 90 9 97 9 5 16 28 18 57 2 28 5 52 6 55 1 3 2
8 2 11 -1 4 15 25 34 47 34 40 40 69 20 100 -5 8 -1 26 9 46 18 34 15 106 -5
106 -6 0 -10 8 -10 18 0 9 -13 30 -30 45 -27 26 -35 45 -31 71 1 4 3 38 6 76
4 78 14 141 25 155 4 6 5 19 3 30 -3 11 -7 43 -10 70 -3 28 -9 54 -14 60 -12
12 -11 52 1 60 6 3 10 24 10 46 0 40 -17 69 -41 69 -7 0 -10 3 -7 6 4 3 0 17
-7 31 -8 15 -11 31 -8 36 3 6 1 7 -5 3 -13 -8 -16 6 -13 73 0 24 6 50 12 57 9
11 8 14 -2 14 -11 0 -11 2 1 10 8 5 12 10 8 10 -3 0 0 22 7 50 7 27 11 73 8
102 -4 45 -1 58 20 86 20 26 23 40 18 60 -12 42 -6 114 12 149 21 40 21 62 1
91 -15 21 -15 25 0 41 20 22 20 29 1 64 -9 17 -12 42 -9 62 4 29 1 37 -25 56
-31 23 -39 47 -22 65 6 5 12 41 15 79 3 55 1 74 -12 88 -13 15 -14 22 -4 37 7
11 12 37 12 58 0 28 9 51 30 81 45 62 52 85 29 99 -13 9 -18 23 -18 54 1 24
-3 54 -9 68 -5 14 -8 50 -6 80 1 30 -2 60 -7 67 -14 16 -24 150 -12 165 5 7 8
45 6 83 -1 39 -3 82 -3 98 -1 15 9 41 21 59 49 68 57 93 41 124 -8 15 -23 37
-33 48 -21 22 -27 106 -8 106 5 0 19 20 30 45 37 84 10 244 -44 261 -17 5 -19
13 -14 58 4 28 2 69 -3 91 -9 40 -9 40 45 91 30 28 55 59 55 69 0 22 -38 65
-57 65 -21 0 -36 50 -34 115 2 53 6 63 31 83 50 39 51 125 1 107 -21 -8 -42
14 -32 34 5 9 10 21 12 26 7 24 36 70 57 91 15 14 22 32 20 51 -3 42 6 50 67
63 51 11 406 17 465 9 23 -4 25 -1 23 31 -3 57 -15 114 -25 128 -8 8 -6 12 6
12 9 0 16 -6 16 -14z m-1325 -684 c25 -18 86 -115 77 -124 -13 -13 -62 8 -62
27 0 8 -4 15 -8 15 -4 0 -23 13 -42 29 -30 25 -33 31 -21 45 14 17 39 21 56 8z
m2180 -1093 c6 -6 3 -16 -8 -26 -16 -16 -18 -16 -38 4 -12 11 -18 26 -14 32 7
12 42 6 60 -10z m135 -14 c0 -8 -9 -15 -20 -15 -11 0 -20 7 -20 15 0 8 9 15
20 15 11 0 20 -7 20 -15z m4557 -1040 c0 -17 -13 -20 -21 -6 -4 5 0 12 6 14 7
3 13 6 14 6 0 1 1 -6 1 -14z m956 -339 c23 -18 21 -26 -7 -26 -23 0 -41 22
-29 34 9 9 16 7 36 -8z m4827 -1096 c0 -23 -26 -26 -53 -6 -20 15 -10 24 31
25 16 1 22 -5 22 -19z m-6295 -142 c17 -6 38 -18 48 -26 9 -8 17 -12 17 -8 0
4 7 1 15 -8 8 -8 15 -22 15 -30 0 -9 5 -16 10 -16 6 0 9 -6 8 -12 -3 -13 21
-14 112 -7 63 5 90 -13 90 -61 0 -18 4 -29 10 -25 6 3 10 1 10 -4 0 -6 7 -11
15 -11 16 0 16 0 18 -46 2 -35 24 -67 40 -57 5 3 7 2 4 -4 -4 -5 4 -16 17 -23
13 -6 34 -34 46 -61 13 -27 30 -49 37 -49 14 0 84 -65 82 -75 -1 -3 2 -16 6
-28 4 -12 8 -24 9 -27 6 -20 51 -90 58 -90 4 0 7 -5 5 -12 -1 -6 8 -17 21 -23
13 -7 22 -16 21 -21 -1 -4 7 -13 17 -19 27 -15 64 -53 64 -65 0 -6 8 -14 17
-17 9 -4 34 -24 56 -45 22 -21 48 -38 58 -38 11 0 19 -3 20 -7 1 -5 2 -20 3
-35 2 -16 16 -39 34 -55 28 -25 31 -32 26 -65 -7 -41 -56 -88 -92 -88 -21 0
-57 35 -66 66 -8 25 -39 64 -52 64 -16 0 -96 84 -88 93 3 2 -3 4 -13 4 -72 0
-94 4 -100 20 -4 9 -16 27 -27 40 -17 20 -26 22 -70 17 -51 -6 -76 -23 -76
-53 0 -9 -12 -34 -25 -56 -14 -22 -25 -49 -25 -60 0 -14 -15 -26 -53 -43 -28
-12 -63 -22 -77 -22 -18 0 -161 64 -183 81 -1 2 -13 -3 -26 -10 -20 -11 -27
-10 -52 8 -42 31 -60 28 -57 -11 3 -31 1 -33 -27 -29 -16 1 -34 6 -40 9 -5 4
-21 8 -34 10 -14 2 -32 7 -40 11 -28 15 -132 9 -187 -10 -58 -20 -90 -24 -98
-11 -3 5 -32 10 -66 11 -45 2 -60 -1 -60 -12 0 -7 -14 -26 -30 -42 -28 -27
-36 -29 -118 -31 -48 -1 -133 -4 -189 -8 -77 -4 -103 -2 -104 7 -3 29 3 123 9
132 4 5 7 16 8 24 2 7 11 23 21 35 11 11 26 30 34 42 72 105 90 123 118 118
16 -3 38 -1 49 5 27 14 82 99 82 126 0 27 18 45 46 45 30 0 74 54 74 90 0 19
10 38 30 57 17 15 43 45 57 67 27 37 28 38 76 32 47 -7 49 -6 110 49 50 45 63
63 67 93 4 31 11 40 45 56 22 10 54 37 70 60 17 22 44 48 62 56 17 8 34 23 37
34 3 13 10 17 23 11 10 -4 32 -12 48 -17z m-2085 -1049 c0 -5 13 -15 29 -20
27 -10 30 -15 33 -65 4 -78 -4 -94 -46 -94 -33 0 -36 3 -47 43 -13 45 -21 146
-13 159 7 10 44 -9 44 -23z m3275 -162 c14 -13 30 -17 50 -14 17 3 62 1 100
-4 39 -5 86 -11 105 -13 19 -2 51 -13 70 -23 35 -20 35 -20 32 -84 -2 -37 -10
-71 -18 -80 -8 -8 -14 -23 -14 -32 0 -14 7 -16 44 -11 39 6 48 3 70 -19 13
-14 22 -28 19 -31 -4 -3 -1 -6 5 -6 7 0 26 -13 44 -30 17 -16 35 -30 40 -30
22 0 55 -50 67 -102 13 -51 12 -60 -2 -75 -23 -26 -31 -67 -15 -80 7 -6 29
-13 50 -17 58 -11 56 -37 -7 -72 -21 -11 -58 -4 -69 14 -4 7 -17 6 -36 -1 -24
-9 -35 -8 -57 5 -27 15 -30 15 -78 -13 -54 -31 -75 -26 -75 17 0 28 -2 28 -59
9 -56 -20 -110 -61 -117 -91 -10 -37 -49 -63 -87 -57 -17 3 -35 9 -38 15 -13
20 -61 -4 -75 -38 -8 -19 -20 -34 -27 -34 -6 0 -34 -18 -62 -40 -44 -35 -51
-37 -65 -25 -17 16 -22 16 -134 15 -85 0 -106 14 -99 67 5 37 -6 53 -39 53
-14 0 -15 -9 -11 -60 6 -64 1 -72 -51 -74 -12 -1 -26 -5 -33 -9 -7 -5 -33 14
-67 49 -53 54 -57 57 -96 51 -23 -3 -49 -12 -59 -21 -10 -9 -30 -16 -46 -16
-18 0 -38 -11 -59 -33 -21 -22 -38 -32 -51 -30 -23 5 -37 5 -117 -3 -48 -5
-62 -3 -84 15 -26 21 -27 21 -63 2 -47 -25 -156 -35 -172 -15 -6 8 -27 14 -46
14 -28 0 -37 -6 -54 -35 -20 -34 -23 -35 -68 -30 -29 4 -51 13 -61 26 -8 11
-34 43 -58 71 -29 37 -40 58 -36 71 17 54 5 93 -33 100 -20 4 -28 -3 -48 -44
-27 -52 -41 -60 -97 -54 -21 2 -66 -2 -100 -9 -35 -7 -82 -12 -105 -10 -34 2
-50 -3 -79 -27 -42 -33 -54 -37 -140 -43 -39 -2 -69 1 -85 10 -43 24 -59 16
-144 -71 -45 -47 -91 -85 -101 -86 -11 0 -27 -2 -37 -4 -19 -4 -49 33 -40 49
3 6 3 8 -2 4 -4 -4 -16 -3 -27 3 -11 6 -29 12 -40 14 -11 3 -27 14 -35 25 -8
11 -18 18 -23 15 -5 -3 -15 2 -23 10 -9 8 -34 17 -56 19 -47 4 -71 20 -71 47
0 20 -19 60 -34 70 -5 4 -6 17 -3 30 3 13 8 34 11 47 5 21 2 22 -27 17 -18 -4
-44 -2 -59 4 -22 8 -29 7 -37 -7 -6 -9 -11 -12 -11 -7 0 6 -4 4 -9 -3 -12 -20
-58 32 -66 76 -8 42 -2 49 53 58 44 7 47 4 45 -53 -1 -7 8 -13 18 -13 15 0 17
4 10 18 -5 9 -14 28 -20 42 -17 36 -36 67 -53 87 -42 49 -28 105 34 145 54 33
105 87 110 113 5 31 84 30 116 -2 13 -13 28 -21 33 -18 5 4 9 2 9 -4 0 -7 8
-7 25 1 14 6 25 14 25 18 0 3 9 16 19 27 21 23 62 21 82 -3 14 -17 59 -19 59
-3 0 13 -58 69 -71 69 -19 0 -7 31 19 47 35 23 47 33 79 62 17 16 39 25 65 27
29 1 49 10 72 33 62 61 88 36 85 -81 -4 -140 -2 -154 24 -165 12 -6 29 -9 37
-8 10 2 17 -6 18 -23 1 -13 11 -32 22 -42 11 -10 20 -22 20 -28 0 -6 19 -20
43 -30 23 -10 48 -26 56 -35 7 -10 20 -17 27 -17 8 0 14 -4 14 -10 0 -20 53
-10 83 16 25 21 38 25 66 20 20 -3 53 -6 73 -6 31 0 36 -3 33 -19 -2 -11 3
-25 11 -32 8 -7 14 -24 14 -38 -4 -62 5 -66 91 -37 72 25 170 84 193 118 13
18 25 21 73 21 32 -1 69 -5 82 -10 15 -6 43 -6 70 -1 25 5 120 11 210 13 160
4 165 5 204 32 65 46 80 53 115 53 49 0 79 -35 78 -91 -1 -39 2 -44 23 -47 17
-3 32 5 50 25 38 42 77 63 124 68 23 3 55 8 72 11 16 4 49 8 73 9 28 2 52 11
67 25 20 18 33 21 106 19 47 -2 90 1 97 5 15 9 65 85 68 103 1 6 8 29 14 49 8
24 10 62 6 104 -3 37 -3 70 1 73 10 11 36 4 58 -16z m972 -731 c4 -6 8 -18 10
-26 1 -8 7 -16 12 -18 6 -2 11 -10 11 -18 0 -8 7 -17 15 -20 8 -4 15 -14 15
-23 0 -9 7 -29 15 -45 8 -15 15 -34 15 -40 0 -15 27 -29 90 -47 32 -9 62 -29
103 -71 32 -32 62 -58 67 -58 14 0 100 -84 100 -98 0 -7 3 -11 8 -11 27 5 31
-4 29 -66 -2 -54 1 -68 20 -86 l21 -22 22 21 c20 19 25 19 56 6 19 -8 36 -14
39 -14 54 1 69 -3 91 -25 14 -14 31 -25 40 -25 8 0 22 -9 31 -20 10 -11 21
-20 25 -20 4 0 26 -18 49 -40 23 -22 45 -37 50 -34 17 10 35 -11 35 -41 0 -18
5 -29 12 -28 7 2 11 0 9 -5 -1 -4 1 -8 6 -9 4 -2 20 -9 36 -17 16 -9 32 -12
36 -8 5 4 5 1 1 -5 -4 -8 -1 -13 8 -13 9 0 16 -6 16 -13 0 -32 36 -48 102 -46
l65 2 73 -73 c41 -40 75 -79 76 -87 4 -23 35 -41 82 -48 30 -4 56 -18 82 -41
32 -30 42 -34 59 -25 31 17 51 13 79 -16 15 -16 36 -35 46 -43 18 -13 19 -13
12 0 -5 8 3 4 17 -10 13 -14 25 -27 25 -30 0 -27 3 -42 8 -37 3 3 17 -5 31
-19 13 -13 27 -24 31 -25 4 0 29 -2 55 -3 43 -1 53 -6 88 -43 45 -48 69 -63
113 -70 47 -8 99 -57 110 -104 0 -3 18 -25 38 -47 29 -32 46 -42 73 -44 19 -1
35 -5 35 -9 0 -14 61 -35 97 -34 39 1 54 -8 66 -37 3 -10 13 -18 22 -18 8 0
14 -3 14 -7 -6 -35 36 -44 100 -22 23 8 35 8 46 -1 7 -6 27 -13 44 -14 17 -1
34 -5 37 -9 4 -4 16 -7 26 -7 10 0 28 -6 40 -12 30 -18 75 -58 64 -58 -5 0 -1
-9 9 -20 14 -16 26 -18 61 -13 34 4 49 2 63 -11 17 -16 20 -16 35 -1 9 9 17
31 17 48 1 18 2 37 4 42 1 6 3 16 3 22 1 7 18 27 37 44 19 18 35 40 35 50 0
10 9 21 20 24 11 3 20 10 20 15 0 5 17 18 38 29 20 11 53 36 72 55 28 29 34
43 32 71 -3 27 4 41 37 76 40 43 40 43 73 28 18 -8 49 -15 68 -14 30 0 36 4
39 25 1 14 12 37 22 51 10 15 19 37 19 48 0 16 6 21 26 21 32 0 54 -21 54 -52
0 -22 29 -75 30 -55 0 5 7 2 15 -7 17 -17 43 -11 61 13 12 15 9 63 -6 91 -11
22 -2 39 19 33 12 -3 26 5 39 21 24 31 32 32 66 5 14 -11 26 -18 26 -14 0 3
10 -5 23 -17 30 -31 44 -74 37 -118 -3 -19 0 -62 7 -95 26 -128 27 -122 -24
-131 -32 -6 -53 -22 -50 -37 1 -6 14 -22 30 -35 15 -13 27 -30 27 -37 0 -7 15
-29 34 -48 23 -24 36 -49 41 -78 4 -24 14 -49 23 -55 18 -13 7 -38 -13 -30
-20 7 -75 -23 -83 -45 -7 -17 -7 -70 -3 -189 1 -19 -4 -59 -11 -87 -11 -50
-11 -54 11 -74 21 -20 23 -28 18 -97 -4 -64 -8 -78 -31 -99 -21 -19 -26 -33
-26 -72 0 -44 2 -48 35 -64 l35 -16 -5 -80 c-3 -49 -1 -82 5 -86 6 -4 8 -10 5
-15 -3 -5 0 -30 6 -55 15 -59 3 -73 -67 -77 -53 -3 -54 -5 -37 -48 10 -24 74
-86 123 -120 30 -21 40 -102 16 -129 -9 -10 -19 -29 -21 -41 -2 -13 -9 -37
-14 -54 -8 -25 -9 -84 -2 -138 1 -3 13 -21 28 -39 29 -34 37 -56 22 -65 -14
-9 -11 -56 10 -115 10 -30 16 -63 13 -74 -3 -11 -6 -63 -7 -115 -2 -101 -20
-154 -69 -207 -20 -22 -23 -33 -20 -101 1 -42 -2 -82 -7 -89 -12 -13 -16 -194
-5 -211 17 -29 16 -108 -3 -152 -17 -40 -19 -70 -19 -286 0 -254 -1 -257 -49
-321 -19 -27 -31 -33 -61 -33 -20 -1 -48 -7 -62 -15 -14 -8 -34 -14 -45 -14
-25 -1 -68 21 -68 34 1 6 -13 23 -29 38 -28 28 -31 28 -109 21 -57 -5 -83 -3
-94 6 -8 7 -13 16 -10 20 3 4 -4 10 -14 13 -18 4 -52 -9 -126 -50 -16 -9 -38
-20 -48 -25 -23 -11 -98 1 -119 19 -20 17 -76 12 -134 -12 -22 -9 -50 -13 -68
-10 -17 4 -38 7 -46 8 -8 2 -27 11 -42 20 -21 15 -53 19 -165 21 -76 2 -142 0
-148 -4 -16 -13 -98 -34 -124 -32 -13 1 -34 10 -45 21 -19 18 -32 20 -131 16
-151 -6 -205 -14 -243 -36 -18 -10 -42 -19 -52 -19 -10 0 -22 -4 -25 -10 -10
-15 -36 -12 -54 8 -35 37 -56 41 -224 40 -91 0 -203 3 -250 7 -77 7 -90 5
-119 -13 -19 -12 -52 -24 -74 -28 -36 -5 -45 -2 -76 25 -24 21 -46 31 -67 31
-39 0 -81 -26 -81 -50 0 -18 -11 -24 -62 -36 -71 -18 -79 -17 -109 12 -35 33
-32 33 -279 44 -14 0 -42 -2 -62 -6 -21 -3 -49 -3 -64 0 -21 6 -24 11 -21 35
7 39 54 111 75 112 29 3 85 0 112 -5 14 -2 34 -5 46 -5 14 -1 27 -15 42 -46
12 -25 26 -45 31 -45 5 0 15 24 23 53 13 52 67 130 130 186 26 24 30 34 30 75
-1 42 3 51 29 73 36 31 54 65 62 118 10 67 18 99 28 111 7 9 11 150 10 446 0
10 -9 27 -20 39 -28 31 -36 80 -18 115 9 18 11 37 7 49 -5 11 -6 36 -3 55 2
19 -2 54 -10 78 -8 23 -12 42 -8 42 13 0 12 63 -1 71 -10 7 -9 14 3 36 20 34
24 128 9 168 -18 46 -31 188 -29 310 4 214 1 511 -6 566 -5 42 -3 64 8 86 9
17 12 35 7 43 -11 17 -6 38 19 85 13 25 17 43 12 54 -5 9 -11 27 -12 41 -2 14
-8 28 -12 31 -5 3 -10 15 -12 25 -2 10 -4 19 -6 19 -1 0 -3 54 -5 120 -1 66
-5 129 -7 140 -5 24 13 63 42 89 12 11 21 25 21 33 0 7 8 17 18 20 9 4 22 12
28 17 7 6 33 23 58 38 l47 28 -2 59 c-1 39 3 68 13 83 8 13 18 39 22 59 3 19
17 50 30 68 20 27 24 42 22 92 -2 42 -9 69 -23 87 -18 24 -26 27 -66 24 -25
-2 -52 0 -59 4 -14 9 -19 11 -43 13 -9 0 -19 9 -22 18 -4 10 -21 32 -37 49
-107 111 -103 103 -109 184 -3 41 -8 83 -12 92 -7 17 -36 32 -66 33 -20 0 -50
25 -44 35 3 4 -2 13 -10 20 -8 7 -13 16 -10 19 7 13 -29 8 -42 -5 -8 -8 -26
-11 -48 -7 -24 4 -35 2 -35 -7 0 -7 -16 5 -35 26 -20 21 -33 44 -30 52 3 10
-3 12 -23 9 -36 -7 -62 -17 -62 -26 0 -13 -52 -32 -109 -42 -67 -11 -78 -20
-63 -54 11 -23 9 -27 -11 -34 -30 -12 -43 -29 -51 -68 -4 -17 -22 -67 -40
-110 -18 -45 -33 -99 -35 -128 -2 -46 -33 -125 -64 -165 -20 -25 -101 -74
-125 -76 -12 0 -27 5 -33 13 -15 17 -53 17 -69 -1 -6 -8 -17 -13 -24 -10 -7 3
-33 -2 -57 -10 -24 -9 -51 -16 -59 -16 -8 0 -44 -14 -80 -32 -63 -30 -70 -32
-206 -34 -122 -2 -145 -5 -175 -23 -19 -12 -44 -21 -56 -21 -18 0 -23 7 -29
45 -7 52 -16 60 -61 56 -26 -2 -38 4 -64 33 -39 45 -66 46 -100 4 l-26 -31
-129 -2 c-115 -2 -174 -8 -194 -20 -9 -6 -53 -13 -124 -20 -33 -3 -64 -9 -70
-13 -14 -9 -66 -11 -66 -3 0 4 -16 8 -35 9 -31 2 -35 0 -35 -23 0 -14 -3 -25
-7 -25 -5 0 -28 -18 -53 -40 -41 -36 -46 -38 -57 -22 -33 46 -60 71 -75 72
-10 0 -18 4 -18 9 0 6 -8 8 -18 6 -19 -3 -62 27 -62 44 0 6 -11 18 -25 27 -25
16 -61 11 -120 -20 -17 -9 -44 -10 -97 -4 -43 5 -81 5 -93 0 -12 -6 -30 -6
-45 0 -45 17 -102 20 -125 8 -30 -16 -69 3 -62 31 3 10 1 17 -4 13 -5 -3 -9 1
-9 9 0 42 -88 71 -132 44 -13 -8 -33 -13 -45 -11 -12 2 -63 -3 -115 -12 -146
-24 -258 -31 -280 -18 -19 13 -50 11 -77 -3 -14 -6 -27 -10 -30 -9 -3 2 -39 7
-79 11 -61 6 -76 4 -92 -10 -15 -14 -22 -14 -40 -5 -31 16 -123 4 -144 -19
-26 -29 -126 -7 -126 28 0 8 -11 27 -25 41 -28 29 -27 18 -21 232 l4 127 36
31 c40 35 46 67 21 110 -8 14 -14 34 -15 46 0 21 42 67 70 76 18 6 75 -15 95
-36 8 -8 28 -13 47 -11 18 2 60 7 93 10 33 4 113 9 178 11 92 4 126 9 154 24
22 12 41 16 47 11 6 -5 25 -11 41 -13 17 -3 47 -12 69 -21 51 -23 63 -22 127
10 38 19 72 28 116 29 63 3 70 -2 77 -51 3 -23 40 -9 50 20 29 80 14 75 230
71 107 -2 202 -8 212 -14 25 -12 72 -5 91 14 28 27 163 84 201 84 44 0 99 -31
112 -63 5 -12 20 -35 34 -51 28 -32 31 -31 101 14 23 14 52 20 116 22 81 3 86
2 112 -24 16 -16 25 -28 21 -28 -4 0 1 -9 11 -20 10 -11 22 -17 26 -14 5 3 9
0 9 -5 0 -19 44 -12 99 15 52 27 54 27 84 9 30 -18 30 -18 50 9 18 26 22 26
80 20 54 -6 88 -22 87 -39 -1 -25 1 -37 6 -32 4 4 15 -2 24 -13 17 -20 17 -20
46 2 23 19 38 22 91 20 46 -3 71 1 93 15 16 9 30 20 30 24 0 3 19 9 42 12 51
7 103 -23 134 -78 6 -11 22 -25 35 -32 20 -10 30 -9 68 12 24 14 47 25 51 25
4 0 21 -13 38 -30 18 -16 33 -30 36 -30 8 0 40 98 41 128 1 35 17 52 47 52 28
0 108 21 166 43 38 14 52 24 52 39 0 11 9 33 20 48 19 27 25 90 9 90 -4 0 -12
15 -19 33 -7 17 -25 59 -41 92 -18 38 -30 82 -33 120 -2 33 -4 61 -5 63 -1 1
0 4 2 7 5 9 -77 84 -104 96 -28 11 -34 27 -29 73 1 10 -4 30 -11 43 -11 21
-11 30 6 61 30 54 90 75 112 38z m-235 -38 c-7 -7 -12 -8 -12 -2 0 14 12 26
19 19 2 -3 -1 -11 -7 -17z m42 -79 c2 -13 9 -23 16 -21 6 1 9 -2 5 -8 -3 -5 2
-10 11 -10 10 0 15 -3 11 -6 -3 -4 -14 -3 -24 1 -10 5 -22 7 -28 6 -5 -2 -7 0
-3 4 4 4 3 17 -2 30 -5 13 -6 26 -3 29 9 8 12 4 17 -25z m-4357 -74 c3 -9 3
-19 -1 -22 -9 -9 -56 18 -50 29 9 14 44 9 51 -7z m-179 -109 c14 -5 22 -15 22
-31 0 -13 5 -27 10 -30 6 -4 8 -9 6 -13 -2 -4 -7 -25 -10 -47 -4 -26 -17 -50
-36 -67 -27 -26 -29 -32 -25 -85 3 -32 7 -75 11 -96 3 -21 2 -43 -4 -50 -5 -7
-13 -23 -17 -37 -4 -14 -19 -37 -32 -52 l-25 -26 31 -31 c30 -29 31 -32 28
-111 -1 -51 2 -83 9 -88 6 -4 9 -16 7 -27 -14 -69 -14 -98 -3 -125 9 -21 13
-87 12 -210 0 -100 4 -180 9 -180 5 0 9 -24 9 -54 0 -30 4 -57 10 -61 6 -3 5
-15 -2 -31 -9 -19 -9 -33 -1 -55 6 -16 7 -29 2 -29 -11 0 -9 -279 2 -301 8
-16 15 -48 24 -109 3 -19 9 -46 12 -60 4 -14 8 -110 9 -215 2 -104 4 -208 7
-230 4 -42 32 -105 50 -117 7 -4 5 -14 -5 -30 -10 -16 -14 -47 -13 -101 0 -43
-3 -81 -7 -83 -14 -9 -9 -59 9 -84 9 -13 18 -39 20 -58 1 -18 7 -41 12 -50 6
-11 5 -24 -2 -37 -8 -13 -12 -81 -13 -190 -1 -171 -3 -184 -26 -242 -11 -29
-10 -37 14 -81 40 -75 42 -107 7 -146 -16 -19 -29 -41 -29 -49 0 -23 21 -67
32 -67 5 0 7 -4 3 -9 -3 -5 2 -17 11 -25 8 -9 12 -16 8 -16 -4 0 0 -8 8 -17
20 -25 65 -189 54 -200 -3 -3 1 -17 8 -32 7 -14 14 -54 15 -89 2 -86 26 -112
105 -112 30 0 57 4 60 9 3 4 33 8 66 8 49 0 65 4 85 23 21 20 30 22 81 16 51
-5 61 -3 91 20 18 14 33 31 33 38 0 23 67 69 133 90 9 3 20 14 23 23 3 10 9
25 13 33 4 8 8 35 10 59 2 29 12 56 29 78 21 28 27 50 33 121 4 48 4 108 1
135 -3 32 0 59 11 85 9 20 18 58 20 84 2 29 10 55 23 69 14 16 18 33 16 68 -6
92 -6 157 -1 205 3 27 0 69 -7 95 -11 41 -10 50 9 81 22 38 32 141 17 170 -5
9 -11 27 -13 41 -2 13 -7 32 -11 41 -4 9 -9 22 -10 30 -2 7 -6 24 -9 38 -4 14
-9 66 -11 115 -3 50 -8 100 -12 113 -12 40 59 96 133 105 44 4 78 22 110 56
33 34 127 53 258 52 59 -1 61 0 100 43 42 46 52 50 180 62 41 4 55 1 74 -16
13 -11 38 -20 55 -20 30 0 61 -23 62 -45 0 -13 64 -56 75 -50 4 3 10 1 14 -5
9 -15 68 -12 101 5 50 24 138 19 160 -11 10 -12 13 -12 24 0 6 9 8 21 4 27 -4
8 -3 9 4 5 7 -4 12 -3 12 3 0 15 39 24 53 13 7 -6 21 -12 32 -14 11 -1 23 -6
26 -10 3 -5 17 -9 32 -10 15 -1 27 -6 27 -10 0 -12 38 -10 45 2 5 8 12 7 23
-2 12 -10 14 -10 8 0 -6 10 -2 10 18 1 21 -10 31 -8 69 14 24 14 49 33 56 41
21 25 89 1 133 -48 15 -15 27 -18 70 -13 76 8 103 15 140 37 35 20 92 21 375
5 91 -5 93 -5 118 22 14 15 25 33 25 39 0 6 7 17 15 24 8 7 15 22 15 34 0 50
46 60 83 20 43 -46 66 -27 107 86 16 45 16 45 69 48 31 2 51 -1 47 -6 -3 -5 3
-19 13 -31 15 -17 29 -21 83 -21 35 0 68 -4 73 -9 6 -5 33 -11 60 -12 40 -2
56 -8 82 -32 18 -17 43 -33 55 -35 37 -8 171 -6 200 2 27 8 61 -11 57 -31 -1
-4 9 -14 22 -20 13 -7 21 -13 17 -13 -5 0 0 -8 10 -18 9 -11 20 -17 25 -15 4
2 7 -3 7 -12 0 -10 5 -13 13 -9 6 4 9 4 5 0 -4 -5 -2 -20 3 -35 6 -14 12 -84
14 -156 2 -71 7 -175 11 -230 9 -125 8 -265 -1 -372 -6 -66 -5 -83 5 -83 7 0
11 -3 7 -6 -5 -6 0 -14 29 -47 15 -17 18 -161 4 -186 -6 -12 -17 -21 -25 -21
-23 0 -27 -17 -30 -133 -3 -105 -4 -112 -28 -132 -13 -11 -32 -43 -41 -72 -21
-63 -36 -77 -86 -75 -32 2 -43 -4 -69 -33 -19 -22 -39 -35 -55 -35 -26 0 -33
-6 -81 -64 -16 -20 -37 -36 -47 -36 -9 0 -25 -11 -36 -25 -11 -14 -28 -25 -39
-25 -10 0 -46 -7 -78 -16 -33 -9 -64 -17 -70 -18 -5 -1 -15 -5 -21 -8 -6 -4
-36 -7 -66 -7 -76 1 -110 -8 -130 -35 -16 -22 -16 -25 6 -67 23 -46 26 -54 26
-67 0 -5 9 -17 19 -29 10 -11 21 -29 23 -39 2 -11 13 -20 28 -22 33 -5 90 -60
90 -88 0 -13 5 -26 10 -29 6 -4 8 -10 5 -15 -3 -5 0 -14 7 -22 7 -7 14 -20 16
-28 2 -8 8 -17 13 -18 5 -2 7 -7 4 -12 -7 -11 20 -31 45 -33 20 -1 80 -57 80
-75 0 -4 14 -21 30 -37 29 -27 30 -33 30 -112 0 -71 3 -85 18 -90 9 -4 20 -11
24 -16 3 -6 45 -11 91 -11 63 -1 91 -6 104 -18 10 -9 41 -19 68 -23 56 -7 91
-25 99 -53 7 -20 39 -40 73 -45 11 -2 28 -8 35 -15 8 -6 18 -9 21 -5 6 6 11
-19 8 -39 0 -4 6 -5 13 -2 19 7 14 -26 -5 -36 -21 -11 -86 -22 -150 -25 -32
-2 -74 -12 -98 -24 l-41 -21 -30 33 c-39 44 -84 57 -153 42 -25 -5 -42 -4 -50
4 -21 21 -57 12 -74 -17 -16 -27 -20 -29 -89 -29 -59 -1 -76 3 -90 18 -23 26
-61 24 -99 -5 -28 -22 -40 -24 -106 -22 -84 4 -122 17 -161 58 -25 26 -32 28
-105 27 -59 -1 -86 -5 -110 -20 -38 -24 -56 -28 -146 -34 -37 -2 -77 -10 -89
-16 -36 -19 -75 -21 -92 -4 -9 9 -13 21 -10 27 4 6 2 8 -3 5 -6 -4 -16 0 -23
8 -7 8 -21 15 -31 15 -10 0 -34 9 -53 19 -32 18 -35 19 -49 3 -8 -9 -20 -27
-26 -39 -10 -20 -19 -23 -64 -22 -72 1 -157 14 -165 25 -10 13 -181 12 -190
-2 -23 -36 -89 -49 -228 -45 -49 1 -66 6 -87 25 -14 13 -23 26 -20 30 11 11
-40 -3 -61 -17 -28 -19 -81 -28 -194 -34 -88 -4 -94 -3 -99 16 -3 12 -12 21
-20 21 -8 0 -11 4 -8 10 11 17 -29 -2 -56 -27 -26 -24 -59 -32 -157 -38 -57
-3 -106 -19 -134 -43 -10 -8 -35 -16 -55 -18 -21 -2 -54 -5 -73 -8 -19 -2 -43
0 -53 6 -9 5 -23 5 -30 1 -20 -12 -47 -14 -66 -4 -11 6 -41 6 -82 0 -35 -5
-81 -13 -103 -16 -21 -3 -41 -2 -45 3 -3 5 -15 14 -26 20 -11 6 -19 21 -19 32
1 12 -2 19 -6 17 -4 -3 -12 1 -18 8 -11 13 -66 13 -148 1 -38 -5 -41 -4 -57
27 -8 18 -14 37 -11 41 11 17 -49 -22 -63 -41 -19 -28 -85 -61 -122 -61 -19 0
-40 10 -56 25 -14 14 -25 23 -25 19 0 -4 -8 0 -17 8 -22 18 -55 16 -108 -7
-32 -15 -64 -18 -165 -16 -68 1 -129 6 -134 11 -19 19 -77 4 -98 -25 -4 -5 -8
-6 -8 -1 0 5 -8 2 -17 -7 -35 -31 -59 -25 -117 31 -31 30 -54 57 -51 61 2 4
-18 18 -45 30 -28 13 -50 26 -50 31 0 4 -9 10 -20 13 -11 3 -20 12 -20 21 0
18 -4 19 -37 10 -15 -4 -23 -14 -23 -29 0 -17 -11 -27 -51 -44 -29 -11 -57
-21 -64 -21 -7 0 -29 -11 -49 -25 -50 -34 -79 -39 -114 -21 -37 19 -65 12 -57
-15 7 -20 -33 -68 -44 -52 -3 6 -14 9 -23 8 -9 -2 -27 5 -39 16 -12 10 -25 19
-28 20 -3 0 -15 3 -26 5 -34 7 -119 6 -145 -2 -14 -4 -45 -7 -69 -6 -25 1 -51
-3 -58 -9 -7 -6 -33 -9 -58 -7 -25 2 -45 1 -45 -3 0 -3 -25 -7 -55 -8 -54 -2
-55 -1 -61 28 -4 16 -14 32 -23 34 -25 5 -51 -4 -51 -18 0 -21 -37 -47 -59
-40 -11 3 -36 7 -55 9 -25 3 -43 13 -61 34 -26 31 -31 32 -92 13 -18 -5 -33
-7 -33 -5 0 3 -6 2 -12 -3 -32 -19 -102 -23 -134 -7 -26 14 -51 40 -52 57 -1
4 -9 15 -18 25 -14 13 -33 17 -83 15 -36 -1 -78 -4 -93 -6 -16 -4 -31 0 -39 9
-12 15 -49 20 -49 6 0 -4 -15 -13 -32 -20 -18 -8 -50 -23 -71 -34 -30 -16 -51
-19 -110 -15 -39 2 -83 7 -95 10 -22 6 -54 35 -71 65 -11 20 -42 21 -76 4 -16
-8 -46 -19 -65 -23 -19 -5 -47 -11 -62 -15 -32 -7 -54 10 -60 47 -3 26 -75
102 -88 94 -4 -3 -11 12 -14 33 -8 49 -8 52 0 85 5 21 1 32 -15 46 -16 14 -21
30 -21 65 0 43 -2 47 -22 44 -19 -3 -21 1 -21 39 0 23 -4 41 -9 40 -14 -3 -50
63 -50 91 0 13 13 38 30 55 17 18 34 46 37 62 4 17 13 49 21 73 19 57 18 117
-2 136 -19 19 -35 73 -29 101 2 11 4 24 4 29 1 4 8 5 17 2 15 -6 15 -4 3 10
-8 10 -14 18 -13 18 21 25 40 106 24 106 -24 0 -40 99 -20 125 4 6 6 26 4 45
-3 19 -4 40 -4 45 1 6 3 51 4 101 2 50 7 97 11 104 7 11 12 68 17 195 1 22 -2
81 -7 130 -9 101 -10 141 -3 170 3 11 0 36 -7 55 -6 19 -11 47 -10 63 1 15 -3
27 -8 27 -6 0 -2 6 8 14 11 8 28 12 39 10 27 -5 53 12 60 39 3 15 20 30 46 42
44 20 47 26 25 45 -8 7 -12 16 -9 21 3 5 1 9 -4 9 -11 0 -29 39 -37 82 -9 47
31 84 98 91 53 5 80 24 108 78 10 20 34 46 53 57 24 14 38 32 44 56 6 20 20
48 31 62 11 15 18 30 15 35 -3 5 -2 14 2 21 4 6 8 46 9 89 1 81 11 103 48 115
35 11 77 47 77 65 0 22 37 49 68 49 26 0 40 -12 61 -51 20 -40 52 -52 136 -52
70 0 75 -1 75 -21 1 -20 21 -56 33 -56 13 0 27 70 33 166 7 98 9 107 36 134
15 16 28 39 28 52 0 20 10 29 50 47 37 17 56 33 70 61 23 45 80 71 163 76 32
1 47 11 93 58 43 45 54 62 54 89 0 26 6 37 26 48 15 7 43 33 64 56 24 28 48
44 70 48 18 3 46 17 63 31 23 19 37 24 63 20 41 -7 82 8 91 31 8 23 47 60 71
67 10 4 25 19 33 34 8 15 34 48 59 74 41 45 48 48 93 48 58 0 87 14 87 40 0
37 44 130 65 136 11 4 29 14 40 24 11 10 38 21 60 24 22 3 52 9 67 12 26 5 42
29 36 55 -2 7 26 27 62 44 39 19 78 48 95 69 17 21 50 58 74 84 23 26 50 57
58 70 8 12 19 22 25 22 22 0 98 93 108 133 15 60 23 72 55 75 15 2 50 19 76
37 49 34 56 35 97 21z m-3090 -2714 c2 -7 -3 -12 -10 -12 -8 0 -15 7 -15 15 0
18 19 15 25 -3z m3903 -2498 c10 -13 10 -17 -2 -25 -19 -12 -56 -11 -80 1 -36
20 -18 34 47 39 12 0 27 -6 35 -15z m2814 -954 c-3 -5 -13 -10 -21 -10 -8 0
-12 5 -9 10 3 6 13 10 21 10 8 0 12 -4 9 -10z"/>
<path d="M9403 14677 c-21 -12 -21 -14 -7 -43 15 -31 18 -32 87 -36 62 -4 75
-2 94 15 32 29 15 53 -47 66 -65 14 -99 13 -127 -2z"/>
<path d="M11880 14151 c0 -5 5 -13 10 -16 6 -3 10 -2 10 4 0 5 -4 13 -10 16
-5 3 -10 2 -10 -4z"/>
<path d="M14392 8793 c-20 -8 -42 -71 -42 -119 0 -24 3 -44 8 -44 17 1 28 17
31 50 2 19 6 40 9 45 6 8 13 77 8 74 0 0 -7 -3 -14 -6z"/>
<path d="M11475 8309 c-4 -6 -5 -12 -2 -15 2 -3 7 2 10 11 7 17 1 20 -8 4z"/>
<path d="M12656 16032 c-3 -5 1 -9 9 -9 8 0 12 4 9 9 -3 4 -7 8 -9 8 -2 0 -6
-4 -9 -8z"/>
<path d="M8871 2527 c-13 -6 -23 -16 -22 -22 1 -9 10 -10 40 -6 6 0 9 10 8 21
-1 11 -1 20 -2 20 0 0 -11 -6 -24 -13z"/>
</g>
</svg>
